<?xml version="1.0" encoding="utf-8"?>
<!-- Generator: Adobe Illustrator 23.0.3, SVG Export Plug-In . SVG Version: 6.00 Build 0)  -->
<svg version="1.1" id="Capa_1" xmlns="http://www.w3.org/2000/svg" xmlns:xlink="http://www.w3.org/1999/xlink" x="0px" y="0px"
	 viewBox="0 0 57 57" style="enable-background:new 0 0 57 57;" xml:space="preserve">
<style type="text/css">
	.st0{fill:#FFFFFF;}
</style>
<g>
	<g>
		<path class="st0" d="M29.7,19.5l0.7-1.2c0.1-0.1,0-0.3-0.1-0.4c-0.1-0.1-0.3,0-0.4,0.1l-0.8,1.3c-0.5-0.2-1-0.3-1.5-0.3
			c-0.5,0-1,0.1-1.5,0.3l-0.8-1.3c-0.1-0.1-0.3-0.2-0.4-0.1c-0.1,0.1-0.2,0.3-0.1,0.4l0.7,1.2c-1.4,0.7-2.4,2.3-2.4,4
			c0,0.2,0.1,0.3,0.3,0.3h8.4c0.2,0,0.3-0.1,0.3-0.3C32.2,21.7,31.2,20.2,29.7,19.5z M23.8,23.2c0.2-2,1.8-3.6,3.9-3.6
			s3.7,1.6,3.9,3.6H23.8z"/>
		<path class="st0" d="M29.8,21.2h-0.4c-0.1,0-0.2,0.1-0.2,0.2v0.4c0,0.1,0.1,0.2,0.2,0.2h0.4c0.1,0,0.2-0.1,0.2-0.2v-0.4
			C30,21.3,29.9,21.2,29.8,21.2z"/>
		<path class="st0" d="M26,21.2h-0.4c-0.1,0-0.2,0.1-0.2,0.2v0.4c0,0.1,0.1,0.2,0.2,0.2H26c0.1,0,0.2-0.1,0.2-0.2v-0.4
			C26.2,21.3,26.1,21.2,26,21.2z"/>
		<path class="st0" d="M31.9,24.1h-8.4c-0.2,0-0.3,0.1-0.3,0.3v6c0,0.8,0.6,1.4,1.4,1.4H25v1.8c0,0.7,0.5,1.2,1.2,1.2
			s1.2-0.5,1.2-1.2v-1.8H28v1.8c0,0.7,0.5,1.2,1.2,1.2c0.7,0,1.2-0.5,1.2-1.2v-1.8h0.3c0.8,0,1.4-0.6,1.4-1.4v-6
			C32.2,24.2,32.1,24.1,31.9,24.1z M31.6,30.4c0,0.5-0.4,0.8-0.8,0.8h-0.6c-0.2,0-0.3,0.1-0.3,0.3v2.1c0,0.3-0.3,0.6-0.6,0.6
			c-0.3,0-0.6-0.3-0.6-0.6v-2.1c0-0.2-0.1-0.3-0.3-0.3h-1.2c-0.2,0-0.3,0.1-0.3,0.3v2.1c0,0.3-0.3,0.6-0.6,0.6s-0.6-0.3-0.6-0.6
			v-2.1c0-0.2-0.1-0.3-0.3-0.3h-0.6c-0.5,0-0.8-0.4-0.8-0.8v-5.7h7.8V30.4z"/>
		<path class="st0" d="M33.5,24.1c-0.6,0-1,0.5-1,1v4.2c0,0.6,0.5,1,1,1s1-0.5,1-1v-4.2C34.6,24.5,34.1,24.1,33.5,24.1z M34,29.3
			c0,0.2-0.2,0.5-0.4,0.5c-0.2,0-0.4-0.2-0.4-0.5v-4.2c0-0.2,0.2-0.5,0.4-0.5c0.2,0,0.4,0.2,0.4,0.5V29.3z"/>
		<path class="st0" d="M21.9,24.1c-0.6,0-1,0.5-1,1v4.2c0,0.6,0.5,1,1,1s1-0.5,1-1v-4.2C22.9,24.5,22.4,24.1,21.9,24.1z M22.3,29.3
			c0,0.2-0.2,0.5-0.4,0.5s-0.4-0.2-0.4-0.5v-4.2c0-0.2,0.2-0.5,0.4-0.5s0.4,0.2,0.4,0.5V29.3z"/>
	</g>
</g>
</svg>
