<?xml version="1.0" encoding="utf-8"?>
<!-- Generator: Adobe Illustrator 23.0.3, SVG Export Plug-In . SVG Version: 6.00 Build 0)  -->
<svg version="1.1" id="Layer_1" xmlns="http://www.w3.org/2000/svg" xmlns:xlink="http://www.w3.org/1999/xlink" x="0px" y="0px"
	 viewBox="0 0 560 288" style="enable-background:new 0 0 560 288;" xml:space="preserve">
<style type="text/css">
	.st0{fill:#FFFFFF;}
</style>
<g>
	<path class="st0" d="M133.5,138v-17.2h3.8V138H133.5z M146.2,120.8v3.3h-7.7v-3.3H146.2z M145,128.5v3.3h-6.5v-3.3H145z"/>
	<path class="st0" d="M148.7,129.4c0-1.3,0.1-2.4,0.4-3.4c0.3-1,0.7-2,1.3-2.7c0.5-0.7,1.3-1.4,2-1.9c0.8-0.4,1.7-0.7,2.7-0.8v3.4
		c-0.8,0.2-1.6,0.7-2,1.7c-0.4,0.9-0.7,2.1-0.7,3.6c0,1.6,0.2,2.8,0.7,3.6c0.5,0.9,1.1,1.5,2,1.7v3.4c-1-0.1-1.9-0.3-2.7-0.8
		c-0.8-0.4-1.5-1-2-1.9c-0.5-0.7-0.9-1.7-1.3-2.7C149,131.8,148.7,130.7,148.7,129.4z M156.6,120.7c1,0.1,2,0.4,2.7,0.8
		c0.8,0.5,1.5,1.1,2,1.9c0.5,0.7,0.9,1.7,1.3,2.7c0.3,1,0.4,2.1,0.4,3.3c0,1.3-0.1,2.4-0.4,3.4c-0.3,1-0.7,2-1.3,2.7
		c-0.5,0.7-1.3,1.4-2,1.9c-0.8,0.4-1.7,0.7-2.7,0.8v-3.4c0.8-0.2,1.5-0.7,2-1.7c0.4-0.9,0.7-2.1,0.7-3.6c0-1.6-0.2-2.7-0.7-3.6
		c-0.5-0.9-1.1-1.5-1.9-1.7v-3.5H156.6z"/>
	<path class="st0" d="M168.3,138h-3.9v-16.8c0.7-0.1,1.4-0.2,2-0.3c0.6-0.1,1.3-0.2,1.8-0.2V138H168.3z M177.5,126.2
		c0,0.9-0.2,1.7-0.5,2.3c-0.3,0.6-0.7,1.3-1.3,1.7l-2.1-3.3c0-0.1,0-0.2,0-0.3c0-0.1,0-0.2,0-0.3c0-0.5-0.1-0.9-0.3-1.3
		c-0.2-0.3-0.5-0.6-0.8-0.8c-0.3-0.2-0.8-0.3-1.3-0.4c-0.5-0.1-0.9-0.1-1.5-0.1h-0.1v-3.1c1,0,2.1,0.1,3,0.3
		c0.9,0.2,1.8,0.5,2.5,0.9c0.7,0.4,1.3,1,1.7,1.7C177.3,124.3,177.5,125.1,177.5,126.2z M171.2,132.1c-0.2,0-0.5,0.1-0.7,0.1
		c-0.2,0-0.5,0-0.8,0.1v-3.1c0.7,0,1.5-0.1,2-0.3c0.5-0.1,0.9-0.4,1.3-0.6l6.1,9.8h-4.3L171.2,132.1z"/>
	<path class="st0" d="M190.9,129.5l-1.7,7.8h-2.8l-1.8-7.9v8.6h-3.8v-17.2h4.7l2.2,10.2l2.4-10.2h4.4v17.2h-3.8v-8.5H190.9z"/>
	<path class="st0" d="M203.9,130.8l0.8,3.1h-3.2l-1,4.2h-3.9l4.6-17.2l1.8,6.6l-0.7,3.3H203.9z M206.1,120.8l4.8,17.2l-3.8,0.1
		l-4.6-17.3H206.1z"/>
	<path class="st0" d="M217,138h-3.8v-17.2h3.8V138z M226.2,134.9v3.1h-7.9v-3.1H226.2z"/>
	<path class="st0" d="M133.5,150.3h3.6v17.2h-3.6V150.3z M145.8,150.3v3.2h-7.3v-3.2H145.8z M144.1,157v3.3h-5.5V157H144.1z
		 M146.2,164.2v3.2h-7.7v-3.2H146.2z"/>
	<path class="st0" d="M148.4,150.3h4.1l4.6,17.2h-3.4L148.4,150.3z M163.3,150.3l-5,16.4l-1.7-6.8l2.6-9.6H163.3z"/>
	<path class="st0" d="M165.4,150.3h3.6v17.2h-3.6V150.3z M177.7,150.3v3.2h-7.3v-3.2H177.7z M176,157v3.3h-5.5V157H176z
		 M178.1,164.2v3.2h-7.7v-3.2H178.1z"/>
	<path class="st0" d="M181.1,150.3h3.8l9.5,17.2h-3.8L181.1,150.3L181.1,150.3z M181.1,167.4v-14.4l3.8,6.8v7.6H181.1z M194.4,164.7
		l-3.8-6.8v-7.7h3.8V164.7z"/>
	<path class="st0" d="M210.6,150.3v3h-13.8v-3H210.6z M202,167.4v-12.9h3.8v12.9H202z"/>
	<path class="st0" d="M219.7,164.1c0.4,0,0.8,0,1.1-0.1c0.3-0.1,0.6-0.2,0.8-0.3l4.1,1.4c-0.6,0.8-1.5,1.5-2.6,1.9
		c-1.1,0.4-2.3,0.6-3.6,0.6c-1,0-2.2-0.1-3.4-0.4s-2.3-0.6-3.3-1l1.5-3.1c0.8,0.3,1.7,0.6,2.7,0.8
		C217.9,164,218.7,164.1,219.7,164.1z M217.6,154.7c0,0.4,0.3,0.7,0.9,1c0.6,0.3,1.4,0.6,2.3,1c0.7,0.3,1.4,0.6,2.1,0.9
		c0.7,0.3,1.4,0.6,1.9,1c0.5,0.4,1,0.8,1.4,1.4c0.3,0.5,0.5,1.1,0.5,1.9s-0.1,1.4-0.3,1.9l-3.8-1.3c0-0.1,0-0.1,0-0.2v-0.1
		c0-0.4-0.3-0.8-0.8-1.1c-0.5-0.4-1.4-0.7-2.3-1.1c-0.7-0.3-1.4-0.5-2.1-0.8c-0.7-0.3-1.4-0.6-2-1c-0.6-0.4-1-0.8-1.5-1.4
		c-0.3-0.5-0.5-1.1-0.5-1.9c0-0.5,0.1-1,0.2-1.4L217.6,154.7z M224.8,154.2c-0.6-0.3-1.3-0.5-2.1-0.7s-1.6-0.3-2.3-0.3
		c-0.8,0-1.6,0.2-2.1,0.5l-4-1.4c0.6-0.8,1.5-1.5,2.6-1.8c1.1-0.4,2.4-0.5,3.6-0.5c0.9,0,1.9,0.1,2.9,0.3c1,0.2,1.9,0.5,2.7,0.9
		L224.8,154.2z"/>
</g>
</svg>
