<?xml version="1.0" encoding="utf-8"?>
<!-- Generator: Adobe Illustrator 23.0.3, SVG Export Plug-In . SVG Version: 6.00 Build 0)  -->
<svg version="1.1" id="Layer_1" xmlns="http://www.w3.org/2000/svg" xmlns:xlink="http://www.w3.org/1999/xlink" x="0px" y="0px"
	 viewBox="0 0 560 288" style="enable-background:new 0 0 560 288;" xml:space="preserve">
<style type="text/css">
	.st0{fill:#FFFFFF;}
</style>
<g>
	<path class="st0" d="M138.1,121.4v3h-4.3v14h-8.2v-3h4.7v-14C130.4,121.4,138.1,121.4,138.1,121.4z M129.2,121.4v3h-3.3v-3H129.2z
		 M135.1,138.4v-3h3.3v3H135.1z"/>
	<path class="st0" d="M140.7,121.4h3.4l8.8,17h-3.4L140.7,121.4L140.7,121.4z M140.7,138.4v-14.3l3.5,6.7v7.6L140.7,138.4
		L140.7,138.4z M153,135.9l-3.5-6.7v-7.7h3.5V135.9z"/>
	<path class="st0" d="M155.8,138.4v-17h3.5v17H155.8z M167.7,121.4v3.3h-7.2v-3.3H167.7z M166.6,129.1v3.3h-6.1v-3.3H166.6z"/>
	<path class="st0" d="M170.1,130c0-1.3,0.1-2.4,0.4-3.3c0.3-1.1,0.6-1.9,1.2-2.8c0.5-0.7,1.2-1.4,1.9-1.8c0.7-0.4,1.6-0.7,2.6-0.9
		v3.4c-0.9,0.2-1.4,0.7-1.8,1.6c-0.4,1-0.6,2.1-0.6,3.6s0.2,2.8,0.6,3.6c0.4,1,1.1,1.5,1.8,1.7v3.4c-1-0.1-1.8-0.3-2.6-0.9
		c-0.7-0.4-1.4-1.1-1.9-1.8c-0.5-0.7-0.9-1.7-1.2-2.8C170.2,132.2,170.1,131.3,170.1,130z M177.2,121.3c1,0.1,1.8,0.4,2.6,0.9
		c0.7,0.5,1.4,1.2,1.8,1.9c0.5,0.7,0.9,1.7,1.2,2.8c0.2,1.1,0.4,2.1,0.4,3.2c0,1.3-0.1,2.4-0.4,3.3c-0.3,1.1-0.6,1.9-1.2,2.8
		c-0.5,0.7-1.2,1.4-1.9,1.8s-1.6,0.7-2.4,0.9v-3.4c0.7-0.2,1.4-0.7,1.8-1.7c0.4-1,0.6-2.1,0.6-3.6s-0.2-2.8-0.6-3.5
		c-0.4-1-1.1-1.5-1.8-1.7L177.2,121.3L177.2,121.3z"/>
	<path class="st0" d="M188.3,138.4h-3.5v-16.6c0.6-0.1,1.3-0.2,1.9-0.3c0.6-0.1,1.2-0.2,1.7-0.2v17.1H188.3z M196.7,126.8
		c0,1-0.1,1.7-0.4,2.3c-0.3,0.6-0.6,1.2-1.2,1.7l-1.9-3.2c0-0.1,0-0.2,0-0.3s0-0.2,0-0.3c0-0.5-0.1-1-0.3-1.3
		c-0.2-0.3-0.4-0.6-0.9-0.7c-0.3-0.2-0.7-0.3-1.2-0.4c-0.4-0.1-1-0.1-1.4-0.1h-0.1v-3.1c1,0,1.9,0.1,2.9,0.3c0.9,0.2,1.7,0.5,2.3,1
		c0.6,0.4,1.2,1.1,1.5,1.7C196.6,125,196.7,125.9,196.7,126.8z M190.9,132.6c-0.2,0-0.4,0.1-0.7,0.1c-0.2,0-0.5,0-0.7,0.1v-3.1
		c0.7,0,1.3-0.1,1.8-0.3c0.5-0.2,0.9-0.4,1.2-0.6l5.6,9.7h-3.9L190.9,132.6z"/>
	<path class="st0" d="M209.2,130.1l-1.6,7.8h-2.6l-1.7-8v8.6h-3.5v-17h4.4l2.1,10.1l2.2-10.1h4v17h-3.5L209.2,130.1L209.2,130.1z"/>
	<path class="st0" d="M221.3,131.4l0.7,3h-3l-1,4h-3.5l4.3-17l1.7,6.6l-0.6,3.3L221.3,131.4L221.3,131.4z M223.4,121.4l4.5,17
		l-3.5,0.1l-4.3-17.1H223.4z"/>
	<path class="st0" d="M233.5,138.4H230v-17h3.5V138.4z M242,135.5v3h-7.3v-3H242z"/>
	<path class="st0" d="M141,150.6h3.4v17H141V150.6z M152.4,150.6v3.2h-6.8v-3.2H152.4z M150.8,157.4v3.3h-5.2v-3.3H150.8z
		 M152.8,164.5v3.2h-7.2v-3.2H152.8z"/>
	<path class="st0" d="M154.9,150.6h3.8l4.3,17h-3.3L154.9,150.6z M168.7,150.6l-4.6,16.2l-1.6-6.7l2.3-9.5H168.7z"/>
	<path class="st0" d="M170.7,150.6h3.4v17h-3.4V150.6z M182.1,150.6v3.2h-6.7v-3.2H182.1z M180.5,157.4v3.3h-5.1v-3.3H180.5z
		 M182.5,164.5v3.2h-7.1v-3.2H182.5z"/>
	<path class="st0" d="M185.3,150.6h3.4l8.8,17h-3.4L185.3,150.6L185.3,150.6z M185.3,167.6v-14.4l3.5,6.7v7.6L185.3,167.6
		L185.3,167.6z M197.6,165l-3.5-6.7v-7.7h3.5V165z"/>
	<path class="st0" d="M212.6,150.6v3h-12.8v-3H212.6z M204.7,167.6v-12.9h3.5v12.9H204.7z"/>
	<path class="st0" d="M221,164.4c0.4,0,0.7,0,1.1-0.1s0.5-0.2,0.9-0.3l3.8,1.4c-0.5,0.9-1.4,1.5-2.4,1.9c-1.1,0.4-2.1,0.6-3.4,0.6
		c-1,0-2-0.1-3.2-0.4s-2.1-0.6-3.1-1.1l1.3-3.1c0.7,0.3,1.6,0.6,2.6,0.9C219.4,164.3,220.3,164.4,221,164.4z M219.1,155
		c0,0.4,0.3,0.7,0.9,1.1c0.5,0.3,1.3,0.6,2.1,1.1c0.6,0.3,1.3,0.6,1.9,1c0.6,0.3,1.3,0.6,1.8,1.1c0.5,0.4,1,0.9,1.3,1.4
		c0.3,0.5,0.5,1.2,0.5,1.9s-0.1,1.3-0.3,1.9l-3.5-1.3c0-0.1,0-0.1,0-0.2s0-0.1,0-0.1c0-0.4-0.2-0.9-0.7-1.2
		c-0.5-0.4-1.2-0.7-2.1-1.2c-0.6-0.2-1.3-0.5-1.9-0.9c-0.6-0.3-1.3-0.6-1.8-1.1c-0.5-0.4-1-0.9-1.3-1.4s-0.5-1.2-0.5-1.9
		c0-0.5,0.1-1.1,0.2-1.4L219.1,155z M225.9,154.7c-0.5-0.3-1.2-0.5-1.9-0.7c-0.7-0.2-1.5-0.3-2.1-0.3c-0.7,0-1.4,0.2-1.9,0.5
		l-3.7-1.4c0.5-0.9,1.4-1.5,2.4-1.8c1.1-0.3,2.2-0.5,3.4-0.5c0.9,0,1.8,0.1,2.7,0.3c0.9,0.2,1.7,0.5,2.6,1L225.9,154.7z"/>
</g>
</svg>
