<?xml version="1.0" encoding="utf-8"?>
<!-- Generator: Adobe Illustrator 23.0.3, SVG Export Plug-In . SVG Version: 6.00 Build 0)  -->
<svg version="1.1" id="Layer_1" xmlns="http://www.w3.org/2000/svg" xmlns:xlink="http://www.w3.org/1999/xlink" x="0px" y="0px"
	 viewBox="0 0 560 288" style="enable-background:new 0 0 560 288;" xml:space="preserve">
<style type="text/css">
	.st0{fill:#FFFFFF;}
</style>
<g>
	<path class="st0" d="M160,129.7l-1.7,7.6h-2.9l-1.8-7.8v8.4h-3.9v-16.7h4.8l2.3,10l2.5-10h4.6V138H160V129.7z"/>
	<path class="st0" d="M166.6,121.1h3.8V138h-3.8V121.1z M179.4,121.1v3.2h-7.6v-3.2H179.4z M177.6,127.9v3.3h-5.7v-3.3H177.6z
		 M179.9,134.8v3.2h-8v-3.2H179.9z"/>
	<path class="st0" d="M192,138.2c-0.1,0-0.2,0-0.5,0c-0.1,0-0.2,0-0.3,0c-1.1,0-2.2-0.2-3.2-0.6s-1.9-1-2.8-1.7
		c-0.8-0.7-1.4-1.6-1.8-2.7c-0.5-1.1-0.7-2.2-0.7-3.6c0-1.2,0.2-2.3,0.6-3.3c0.3-1,0.9-1.9,1.6-2.7c0.7-0.7,1.5-1.4,2.4-1.8
		c0.9-0.4,1.8-0.7,2.9-0.9v3.3c-0.6,0.1-1,0.3-1.5,0.6s-0.8,0.7-1.1,1.2s-0.6,1.1-0.8,1.6c-0.2,0.5-0.2,1.2-0.2,1.8
		c0,0.7,0.1,1.5,0.3,2.1c0.2,0.6,0.6,1.3,1.1,1.7c0.5,0.5,1,0.9,1.6,1.2c0.6,0.3,1.1,0.4,1.8,0.4c0.1,0,0.2,0,0.3,0s0.2,0,0.3,0v3.3
		H192z M197.1,128.3v8c-0.6,0.4-1.3,0.9-1.8,1.1c-0.6,0.3-1.3,0.5-1.9,0.6v-6.6h-3.8v-3.2h7.6V128.3z M194.5,125.2
		c-0.7-0.3-1.3-0.6-1.8-0.7c-0.5-0.1-0.9-0.2-1.3-0.2V121c0.7,0,1.4,0.2,2.3,0.4c0.9,0.2,1.8,0.7,3,1.4L194.5,125.2z"/>
	<path class="st0" d="M206.5,131l0.9,3H204l-1,4.1h-3.9l4.7-16.8l1.8,6.5l-0.7,3.3L206.5,131L206.5,131z M208.9,121.1l4.9,16.8
		l-3.9,0.1l-4.8-17C205.1,121.1,208.9,121.1,208.9,121.1z"/>
	<path class="st0" d="M133.5,149.9h3.8v16.8h-3.8V149.9z M146.2,149.9v3.2h-7.6v-3.2H146.2z M144.5,156.7v3.3h-5.7v-3.3H144.5z
		 M146.7,163.7v3.2h-8v-3.2H146.7z"/>
	<path class="st0" d="M149,149.9h4.2l4.8,16.8h-3.7L149,149.9z M164.5,149.9l-5.2,16.1l-1.7-6.6l2.6-9.4h4.2V149.9z"/>
	<path class="st0" d="M166.6,149.9h3.8v16.8h-3.8V149.9z M179.4,149.9v3.2h-7.6v-3.2H179.4z M177.6,156.7v3.3h-5.7v-3.3H177.6z
		 M179.9,163.7v3.2h-8v-3.2H179.9z"/>
	<path class="st0" d="M183,149.9h3.8l9.9,16.8h-3.8L183,149.9L183,149.9z M183,166.9v-14.1l3.9,6.6v7.5H183z M196.7,164.2l-3.9-6.6
		v-7.7h3.9V164.2z"/>
	<path class="st0" d="M213.5,149.9v3h-14.2v-3H213.5z M204.6,166.9v-12.7h3.9v12.7H204.6z"/>
	<path class="st0" d="M222.9,163.6c0.5,0,0.8,0,1.1-0.1c0.3-0.1,0.7-0.2,0.9-0.3l4.2,1.4c-0.7,0.9-1.5,1.5-2.6,1.8
		c-1.1,0.4-2.4,0.5-3.8,0.5c-1.1,0-2.3-0.1-3.6-0.4s-2.4-0.6-3.4-1.1l1.5-3.1c0.8,0.3,1.7,0.6,2.8,0.9
		C221.1,163.5,222,163.6,222.9,163.6z M220.7,154.4c0,0.4,0.3,0.7,0.9,1.1c0.6,0.3,1.4,0.6,2.3,1c0.7,0.3,1.5,0.5,2.2,0.9
		c0.7,0.3,1.4,0.6,1.9,1.1s1,0.9,1.4,1.4c0.3,0.5,0.6,1.2,0.6,1.8c0,0.6-0.1,1.3-0.3,1.8l-3.9-1.3c0-0.1,0-0.1,0-0.2v-0.1
		c0-0.4-0.2-0.7-0.8-1.2s-1.4-0.7-2.3-1.1c-0.7-0.2-1.5-0.5-2.2-0.9c-0.7-0.3-1.4-0.6-2.1-1.1c-0.6-0.4-1-0.9-1.5-1.4
		c-0.3-0.5-0.6-1.2-0.6-1.8c0-0.5,0.1-1,0.2-1.4L220.7,154.4z M228.3,153.9c-0.6-0.3-1.4-0.5-2.2-0.7c-0.8-0.2-1.7-0.3-2.4-0.3
		c-0.9,0-1.6,0.2-2.2,0.5l-4.1-1.3c0.6-0.9,1.5-1.4,2.8-1.8c1.1-0.3,2.4-0.5,3.8-0.5c1,0,1.9,0.1,3,0.3c1,0.2,1.9,0.5,2.9,1
		L228.3,153.9z"/>
</g>
</svg>
