<?xml version="1.0" encoding="utf-8"?>
<!-- Generator: Adobe Illustrator 23.0.3, SVG Export Plug-In . SVG Version: 6.00 Build 0)  -->
<svg version="1.1" id="Layer_1" xmlns="http://www.w3.org/2000/svg" xmlns:xlink="http://www.w3.org/1999/xlink" x="0px" y="0px"
	 viewBox="0 0 400 353" style="enable-background:new 0 0 400 353;" xml:space="preserve">
<style type="text/css">
	.st0{fill:#FFFFFF;}
</style>
<path class="st0" d="M298,316c-22-1.7-44-2.1-66-1v2l1,1c0,2,2,2,12,2h9v5l-1-1h-1l-1-1h-2l-4-1l-3,1h-1h-1l-1,1l-1,1l-1,1l-1,1v5
	l1,1l2,3l1,1h1v1l-2,1l-1,1v2c2,2,4,2,6,0l2-1h1l1-1h1v-1h1l1-1h1l1-1c1-1,1,0,1,3l1,4l1,1h2v-25h19v2h-6l-6,1l-2,1v5l2,3v2
	c-2,2,0,10,2,10l1,1h1l1,1h1l3,2h1l1,1h3v-1v-1v-1h-1l-4-2h-1l-1-1l-3-3v-1v-1l1-2l1-1c1-2,3-2,5-2h2v1l-1,1l-3,2c0,2,2,4,4,4v1h1v1
	h1l3-3h6v4h1l1,1h2v-25h3c4,0,5-1,3-3L298,316z M246,334c-3,1-5,0-5-1l-1-1c0-3,3-5,3-3l1,2l2,1v1l1,1H246z M252,332l-1,1h-1l-1-1
	v-1l-1-1l-1-1l-1-2l-1-1h3l3,1h1l2,3L252,332z M289,328v7h-3l-3-1l-1-1l-2-2l-1-2h-1h-6h-1l-1,1h-1l-2-1c0-2,0-2,7-2s7,0,7-4v-3h8
	V328z M175,288h-10v-48l1-51l1-1l1-2l1-1l1-1l2-1h1h4h1l2,1l1,1l2,2l1,1c1.4,33,2,66,2,99L175,288z M213,309l-2,2c0,2-1,1-3,0l-2-2
	l1-2l1-2c2-1,2-1,4,1C214,307,215,309,213,309z M242,288h-11l-11-1l1-94v-3l1-1l1-2h1l2-2l1-1l1-1h1h5h1l5,4
	c1.8,33.3,2.5,66.7,2,100V288z M212,188c1.5,33,2.2,66,2,99h-22l1-94v-3h1v-1l1-1v-1l3-2l1-1l1-1h1h5h1l1,1l3,3L212,188z M217,317
	c0-2,1-2-51-2h-51v-1c-1-3-1-6,1-7l5-2l1,1l2,1l6,5l1,1c2,0,2-2,0-4l-2-1v-1l-3-2l-3-2l-1-1h-2l-1-1l-2,1h-2h-1v1l-4,3v6l1,1l1,1
	l1,1h-6v2l2,2l2,1h2v24h1l1,1h2v-25h23v6l-3-2l-1-1h-2l-3-1l-4,1h-1l-1,1l-2,2l-1,1v5h1c0,2,3,6,5,6h1l2,1h4l1-1h2l1-1l1-1v3l1,5
	l2,1h2v-25h26v2h-20v4h1l2,1l2,1h1l1,2l1,1v4l-1,1l-2-1l-2-1h-1h-3v5l3,2h2l2,1l2,3c3,3,4,3,5,2s1-1-2-4l-2-2l1-1l1-1h1l2-2v-1v-5
	l-4-4c-1-1-1-1,4-1h6l-1,8c0,9,0,9,2,10l1,1h2v-25h6v11l1,13h2l2,1h1v-25h21v6h-8l-8,1h-1v4h1v1l2,2c3,3,5,2,5-2v-1h9v6l1,7l1,1h2
	v-25h3c4,0,5-1,3-3H217z M129,335l-1-1l-1-1v-3l2-3h6l1,1h1l2,3L129,335z M368,134l-1-2l-1-1v-1h-1v-1l-1-1l-1-1v-1l-2-2l-3-4l-2-2
	l-1-2l-2-2c-12.7-14.6-26.8-28-42-40l-4-3l-3-3l-2-1l-4-4l-2-2l-1-1l-1-1c-2.8-2.5-5.5-5.2-8-8c-0.9-1.1-1.9-2.1-3-3l-1-1l-2-2l-2-2
	l-1-1l-1-1c-1.6-1.5-2.9-3.2-4-5l-2-2c-0.6-1-1.3-2-2-3l-1-1l-1-1l-2-3v-1l-3-6l-1-1l-2-4l-2-2l-1,1v2l1,1v3l1,1v2l1,3v1l1,1v2l1,1
	v2l2,3c1.5,2.9,2.8,5.9,4,9v1l1,1v1l1,1v1l1,1l1,1l1,1v1l1,1l1,2v1h1v1l3,4l2,4l1,1l1,1l1,2l2,1l1,2l1,1v1l2,2l1,1l2,3l2,2l5,6l2,1
	c3.8,4.2,7.8,8.2,12,12c4.2,4.8,8.5,9.5,13,14c6.6,8.1,12.9,16.5,19,25l1,2l1,1v1l1,1v1l1,1v1l1,1v1l1,1v2l2,4l1,2v2l1,2l1,2v3l1,2
	v3l1,2v8c0.1,3.4-0.2,6.7-1,10v4l-1,2v2l-1,2l-1,3l-1,2v1l-1,1l-1,2l-1,1v1l-2,2l-1,2l-2,3l-1,1c-5.2,5.9-11.2,11-18,15h-1l-1,1h-2
	l-3,2h-1l-2,1h-2l-2,1h-1h-1c-6.3,0.7-12.7,0.7-19,0l-1-1h-2l-5-1l-1-1h-1v-1h-2l-2-2l-2-1l-1-1l-1-1l-1-2l-2-1l-3-5l-1-3v-1l-1-1
	c-1.7-9-1.4-18.2,1-27l1-1h1l1,1h3l2,1h4l3,1h3l3,1h6l3,1c11,0.4,22.1-0.2,33-2l2-1l1-1h1l1-2v-5v-1h-1l-1-1l-1-1h-1v-1h-1h-1l-2-1
	c-15.7-0.5-31.5,0.5-47,3l-3,1h-3l-1,1h-1h-1l-1,1h-2h-1h-2l-1-1h-1h-1l-1-1h-1l-2-1l-5-4v-5l1-2l1-1l1-1l2-2v-1h1l4-1l5-1h2l2-1h4
	l1-1h3l6-2h2l1-1h2l1-1h2l2-1h1l1-1h1l1-1h3l1-1h1l1-1h1l1-1h1l1-1h1l2-1l1-1h1v-1h1l1-1h1l2-2l2-1l3-6l1-1v-2h-1v-1l-1-1l-1-1l-1-1
	c-3.7-0.3-7.4,0.1-11,1h-2h-1l-1,1h-1l-1,1h-1h-2l-1,1h-1l-1,1h-1l-1,1h-1l-3,2h-1l-1,1h-1l-1,1h-1l-1,1h-1h-1v1h-1l-1,1l-3,2h-1h-1
	l-1,1l-1,1h-1l-2,1v1h-2l-1,1v1h-1l-1,1l-1,1h-1l-2,1l-1,2l-2,1l-2,2l-2,1h-3l-3-1h-3l-1-1l-1-1l-1-1v-3v-1v-1v-1l1-1v-2l1-1v-1l1-1
	l1-1l1-1l1-1l2-1h1l1-1l2-1l1-1h1l1-1l2-1l1-1l1-1h1l1-1v-1l2-1l2-1l1-1l1-1l1-1l3-2c8.9-7.9,16.6-17,23-27v-1v-5l-1-1l-4-2l-4,1h-1
	h-1l-1,1l-1,1h-1l-1,1l-1,1l-3,2l-2,2l-4,4l-6,6l-2,2l-2,3l-1,1l-4,5l-1,1l-1,1c-0.3,0.7-0.6,1.4-1,2l-1,1v1l-1,1l-1,1l-1,2l-1,1v1
	l-1,1l-1,1v1l-1,1v1l-1,1v1l-1,1c-1,2-4,4-6,4h-1l-2,1h-3l-3-1v-1l-1-3v-2v-2v-2v-1v-2l1-2l1-2l1-1v-1l1-1l1-1l1-1l1-2l1-1l1-3l1-1
	l1-1v-0.6V115l1-2l1-2l1-1l1-1v-1l1-1v-1l1-1l1-1v-2l1-1v-1l1-1v-1l2-4l1-1v-1v-1h1v-1l1-1v-1v-2l1-1v-1l1-1v-1v-1l1-1v-1l1-3v-3v-5
	v-1c0-2-2-4-3-4h-1h-3l-2,1l-1,1l-1,1l-1,1l-2,3l-1,1l-1,2l-1,1v2l-1,2l-1,1v1h-1v2l-1,2l-1,3v1l-1,1v2l-1,2l-1,2v2l-1,1v1l-1,5
	l-1,1v3l-1,1v2l-1,2v3l-1,3v1l-1,2v4l-1,1l1,2l-2,1l-1,2l-1,2l-4,3l-1,1l-1,1h-1h-2h-1v-1l-1-1l-1-1l-2-5l-1-1v-2v-2v-1l1-1v-2v-2
	l1-1v-3l1-3v-2v-2l1-2v-3l1-3v-3v-3l1-13c0.1-7.1-0.6-14.1-2-21l-1-1c0-3-3-8-5-8h-1l-1-1v1h-1l-4,4l-1,1c-0.3,1.3-0.6,2.7-1,4v2
	l-1,2v13c-0.5,4.7-0.5,9.3,0,14l1,4v5l1,5v4l1,2v2l1,1v3l2,6v5c-1.1,2.8-2.4,5.4-4,8l-1,1l-1,1h-2l-1-1l-1-1c-2.7-2.3-5.4-4.6-8-7
	l-2-6v-1v-2l-1-2v-1l-1-2v-1v-2l-1-2v-3l-1-1v-2v-1l-1-1v-1v-1l-2-5v-1l-1-2v-1l-1-1v-1v-2l-1-2l-1-2v-1l-1-1l-1-2v-1l-1-2l-1-1v-1
	l-1-1v-1l-1-2l-1-1v-1l-1-1l-5-4l-1-1h-4c-2,1-3,2-3,4v3c1.4,5.3,2.7,10.6,4,16v2l1,1l1,2l1,2v1l1,1v1l1,1v2l2,3l1,1
	c0.6,1.4,1.3,2.7,2,4l1,1l1,2l1,2l1,2v1l2,2l1,2l1,1l3,4v1l1,1l1,1v1l1,1v1h1v3l1,4l-1,1l1,1l-1,3v2l-1,1l-1,2h-5l-2-1h-1h-1l-1-1
	h-1v-1l-3-3l-2-2v-2l-1-1l-1-1l-1-1v-1v-1h-1l-1-1l-1-2l-2-3l-1-2l-2-2l-1-1l-1-2l-1-1l-1-1l-1-2l-3-2v-1l-2-2
	c-3.4-3.3-6.7-6.6-10-10c-1.5-1.6-3.1-2.9-5-4l-1-1h-2l-1-2h-2h-7l-1,1l-1,1v5l1,2l2,4l1,2l1,1v1h1l1,1l1,1l3,4l2,2l1,1
	c7.9,6.8,15.9,13.4,24,20l2,2l2,1l1,1h1l1,1l2,1h1l1,1l3,3l1,4l1,1v7l-5,2h-1l-2,1h-2l-4-1l-2-2l-1-1l-2-2l-1-1h-2l-1-1l-1-1l-1-1
	l-1-1h-1l-1-1l-3-1v-1l-2-1l-1-1h-1h-1l-1-1h-1v-1l-3-1l-2-1h-1l-1-1h-1l-1-1l-1-1h-1l-1-1h-2v-1h-1h-1l-1-1h-1h-1l-1-1l-2-1h-2
	l-1-1h-3l-1-1h-7l-5,1l-1,1v1c-1,1-1,5,1,7l1,1l1,1l2,2l3,2l1,1h1v1h1l1,1l2,1h2v1l2,1c4.4,1.6,8.7,3.2,13,5h2l1,1h2l1,1h1l3,1l3,1
	h5l1,1h3l9,2c4,0,6,1,6,2l2,3l1,1l1,2l1,4l-3,3l-2,1l-1,1l-1,1l-3,1h-1h-1v1h-3h-2h-1l-1-1h-1h-1l-1-1h-3l-3-1h-2l-1-1h-4l-2-1h-2
	h-3c-7.3-0.3-14.7-0.7-22-1H80l-2,1h-1h-1l-1,1l-2,1l-1,2v1v4l4,3l1,1h2l2,1h1c19.4,2.2,39.1,0.8,58-4l1,1v3l1,1v1l1,2v17l-2,4v2
	l-1,1v1l-1,1v1l-1,1v1l-1,1c-1.9,2.4-4.3,4.5-7,6l-1,1h-1l-1,1h-1v1h-1l-2,1h-2l-1,1h-1h-1l-2,1h-3l-8,1c-3.7,0.2-7.4-0.1-11-1l-1-1
	h-2l-4-1l-1-1h-1l-1-1l-4-2h-1l-1-1l-1-1l-2-1l-1-1h-1c-6.1-5.2-11.5-11.3-16-18l-2-3v-1l-1-1v-1l-1-2c-1-4.3-2-8.7-3-13l-1-4
	c-0.2-8.4,0.8-16.9,3-25v-1l1-2l1-5l1-1v-1v-1h1v-1v-1l1-1l1-1v-1v-1l2-4l1-1v-1l3-5h1v-1l1-1l2-4h1l1-2l3-3l1-2l1-1l1-2l2-1
	c2.1-2.8,4.5-5.5,7-8c4.9-5.7,10.3-11.1,16-16l2-2l2-2c1.3-1.7,2.6-3.4,4-5l2-2l3-3l2-2l1-2l3-3l1-1l1-1v-2h1l2-3l1-1v-1l1-1l2-3
	l1-1l2-3l1-1v-1l1-1l2-3l1-2l1-1v-1l2-3v-1v-1h1l1-2v-1l1-1v-1l1-2l2-4v-1l1-1v-1v-2l1-1v-1l1-1v-1v-2l1-2v-3l1-2c0-2-1-3-2-2l-2,4
	l-1,2l-1,2l-1,2l-1,2v1l-1,1l-2,2v1l-1,1l-1,1l-1,2l-2,2l-1,2c-2,1-2,2-2,3h-1l-1,1l-3,3l-1,1l-3,3l-3,3l-2,2l-2,2l-2,2l-7,6l-2,2
	l-3,3c-1.9,1.8-3.9,3.5-6,5c-4.5,5.1-9.6,9.8-15,14l-1,1l-3,2l-2,2l-3,3l-2,2l-2,1l-1,2l-1,1h-1c-9.8,8.7-18.2,18.8-25,30l-1,2l-2,2
	l-1,2l-1,1l-1,2l-1,1v1l-1,1v1l-1,1l-1,1l-1,2v1l-1,1v1l-2,4l-1,1v1l-1,1v2l-1,1v2l-1,1v2l-1,1v2l-2,5v2l-1,2v3l-1,3
	c-1.4,16.1-0.4,32.2,3,48v1l1,1v1l1,1v2l1,1v2l1,1v1l2,3v1l3,5v1l3,3v1l2,2l2,3l2,2l3,2c3.8,4,8.2,7.3,13,10l1,1l1,1h2l1,1l1,1h1
	l1,1h1l2,1l1,1h1l1,1h2l2,1l2,1h3l1,1h3l3,1h3c11.8,1.4,23.8,0.1,35-4l1-1h2v-1h1l2-1l1-1l1-1h2l1-1l1-1l2-2l2-2l1-1l2-1l2-2l2-2
	l1-2l1-1v-1l1-1l1-1v-1l1-1v-1l1-1l1-1v-1v-1l1-2v-1l1-1v-1l1-1v-1l1-2l1-4v-2l1-1v-1v-2l1-2c1.2-7.7,0.8-15.5-1-23l-1-1v-1l-1-2v-2
	l-1-1l-1-1v-1l-1-1l-8-8l1-1l2-1h1l1-1h1l1-1l2-1l4-4l1-1v-3v-3l-1-1v-1l-1-1l-1-2l-2-2v-1h2l5-2l2-1h1l1-2l1-1l1-1l-1-8l-1-2v-1h2
	l2,1c1.7,0,3.3,0,5,0h2l3-2h1v-2l1-1v-10l3,2l3,3l1,1h1l6,1h1l5-5v-1l1-1v-1l1-1l1,2l1,1v1l5,5h7v-1h1l1-1l1-1l2-1l1-2l1,3l1,6v1
	l1,2c0,1,5,3,7,2l4-1h3l-1,2v3v6c0,2,1,3,3,4l1,1h2l1,1h1l2,1c3,0,3,0,2,1l-2,2l-1,1l-1,3v1l-1,3l1,3v1l1,1l3,3h1l1,1l1,1h2v1h2l1,1
	h1v1c-2,1.7-3.7,3.7-5,6l-2,2l-1,1v1l-2,3v1l-1,2l-1,2v1c-1.7,10-1.3,20.2,1,30v1l1,1v1l2,5v1l1,1v2l1,1v1l1,1v1l1,1v1l1,1l2,3l1,1
	l1,2l2,2l1,2l2,1l1,1c1.4,1.9,3.1,3.6,5,5l2,1l1,1h1v1h1l1,1l2,1l2,1h1l1,1l2,1h1l2,1h3l1,1h3l7,2c9.1,0.3,18.2-0.7,27-3h2l2-1h1
	l1-1h1l4-2h1l4-2l3-2h1l1-1l2-1v-1h1l2-1l1-1l1-1l2-1l1-1c5.5-5.2,10.5-10.9,15-17l1-2h1v-1l1-1v-1l2-3v-1h1v-1v-1l1-2l2-4v-1l1-2
	v-1v-2l1-1v-2v-1l1-4v-4l1-2v-2v-4l1-4C391.5,180.1,383.7,154.6,368,134z M283.7,193.2L283,193h-1l0,0c-1-0.2-2-0.3-3-0.5l-0.7-0.3
	c1.5,0.2,3.4,0.5,5.6,0.8c1.5,0.2,3.1,0.4,4.6,0.6l0.3,0.3C287.2,193.7,285.5,193.5,283.7,193.2z M291,194l0.4,0.2
	c-0.6-0.1-1.1-0.1-1.7-0.2H291l-0.5-0.2c0.5,0.1,1,0.1,1.5,0.2H291z M322.5,194l-1.2,0.3l0.7-0.3h-2v0.7l-1,0.3
	c-8.7,0.4-17.4,0.2-26-0.7V194c11.9,1.1,22.7,0.8,29.7-0.8L322,194H322.5z M276,189l2-1h2h1h1l0.3-0.2c1.1-0.1,2.2-0.3,3.2-0.4
	L285,188l1.3-0.6c5.3-0.7,10.5-1.5,15.7-2.4l3-1c-1,1,2,1,7,1c2.4,0,4.9,0,6.2-0.2l3.8,0.2c6,1,9,2,9,5c0,1-1,2-5,3l-2.8,0.8
	l0.8-0.8c0,0,0,0,0.1,0h2c2.1-0.9,3.3-1.9,3.7-2.9l-0.2,0.1c0.8-1.7-1.4-3.3-6.6-4.2l-20-1h-1l-3,1l-14,2l-5,0.7V188l-2,1
	c-1,0.3-1.9,0.5-2.7,0.7L276,189z M271,190.1v0.9h1L271,190.1c0.1,0,0.2-0.1,0.2-0.1l1.3,0.4L272,190l2-1h1v0.8
	c-1.2,0.3-2,0.6-2.3,0.8l-0.2-0.1l0.2,0.2c-0.4,0.4,1,0.8,4.5,1.3H277l0.2,0.2c-0.4-0.1-0.8-0.1-1.2-0.2h-3
	C270.6,191.2,270.1,190.4,271,190.1z M281,161c-1.3,0.4-2.7,0.7-4,1c-2.5,0.6-4.9,1.1-7.4,1.4l0.4-0.4h-1l-1.4,0.7
	c-0.9,0.1-1.7,0.2-2.6,0.3c-0.5,0.1-0.9,0.2-1.3,0.3l0.3-0.3c-0.4,0-0.7,0-1,0l4-1c1.7-0.2,3.3-0.5,5-0.8v0.8l2-1h-1.1
	c1.3-0.3,2.5-0.5,3.8-0.8L275,162h2v-0.9c0.5-0.1,1.1-0.3,1.6-0.4L278,161h1l0.6-0.6c0.5-0.1,0.9-0.3,1.4-0.4V161z M315,146l-1,1
	l-1,1c-7.2,4.4-14.9,7.7-23,10c-2.9,1.1-5.9,2.1-8.9,2.9l0.9-0.9h-0.9c3-0.9,6-1.9,8.9-3l3-1l6-2c4.4-1.7,8.2-3.6,11.4-5.4L310,149
	l8-5l-1.9,1c3-2.2,4.5-4.2,4.4-5.5l0.3,0.3C320.8,141.8,318.8,144.5,315,146z M320,138c0.5,0.5,0.7,1,0.7,1.6l-0.4-0.7
	c0-0.1-0.1-0.1-0.1-0.2l-0.8-1.2C319.7,137.7,319.9,137.9,320,138z M309,138.5c0.7-0.2,1.3-0.3,2-0.5l2-1c0.8-0.8,4.2-0.3,6,0.4v0.6
	l0.1,0.1c-1.2-0.4-3.2-0.5-6.1-0.1c-1.4,0.2-2.7,0.5-4,0.9V138.5z M262,163l2-2l2-1l2-1v-0.7c5-3.3,10.2-6.4,15.4-9.3h0.6l2-1
	l-2,0.7c4.9-2.7,9.9-5.3,15-7.7c2.8-0.6,5.5-1.3,8.3-2h1.3c-1.9,0.5-3.7,1.2-5.5,2c-14,5-27,12-37,20c-0.9,0.5-1.7,0.9-2.3,1.2
	c0.4-0.3,0.8-0.7,1.3-1.2C263.6,161.9,262.5,162.6,262,163L262,163z M261,164l0.3-0.3c-0.5,0.6,0.1,0.8,1.7,0.5v0.2
	c-0.9,0.2-1.6,0.2-2,0.2V164z M279.6,102.5c0.6-0.6,1.3-1.1,1.9-1.7l-0.5,0.9c-0.8,0.7-1.6,1.3-2.3,2L279.6,102.5z M269,113l1-1
	l0.2-0.4c0.8-0.8,1.5-1.6,2.3-2.4l0.5-0.2l0.2-0.5c1.6-1.5,3.2-3.1,4.8-4.5l-2,2c-2.7,2.7-3.6,3.6-2,2.3c-1.9,1.9-3.7,3.8-5.5,5.7
	C268.7,113.7,268.8,113.3,269,113z M268.1,113.9L268,114l-0.7,0.7C267.6,114.4,267.8,114.2,268.1,113.9z M249,139l1-2l1-1v1l1-2l1-2
	l2-3v1l1-2v-0.5c0.6-0.9,1.3-1.7,2-2.5c2.8-3.8,5.9-7.5,9-11h0.6c-6.4,7.1-12,14.8-16.9,23H250L249,139c0,1.4,0.5,0.8,1.1,0
	c-0.4,0.7-0.8,1.3-1.1,2c1.7-0.9,3.3-1.9,4.9-2.9L253,140l1-1l2-1h-1.8c3-1.8,6-3.8,8.8-5.9v0.9l2-2l-1.5,0.7
	c2.9-2.1,5.7-4.4,8.5-6.7c1.8-1.7,3.5-3.3,5.3-5l-2.3,3c3-3,5.8-6.2,8.6-9.4c1.2-1.2,2.3-2.4,3.4-3.6c1.8-2.1,3.1-4.2,4.2-6.2
	l0.8-0.8v-0.9c1.2-2.8,1.5-5,1-6.1h-3c-0.4,0.1-0.8,0.3-1.2,0.5L285,98h0.9c-1.4,0.9-2.7,1.9-3.9,3c0-0.2,0-0.3,0-0.5
	c1-0.8,2-1.7,3-2.5c0-1.1,2.3-2.1,4.6-2.6L289,96h1v-0.7c1.8-0.3,3.6-0.2,4,0.7c1.3,2-0.9,6.6-5.4,12.4L288,109l-0.2,0.4
	c-2.2,2.7-4.8,5.6-7.8,8.6c-1.9,2.1-3.9,4.1-6,6c-7.8,7.4-16.6,13.8-26,19L249,139z M233.1,118.6c-0.2,0.3-0.3,0.5-0.5,0.8L231,121
	l2-3l0.5-0.5L233.1,118.6z M232,105.6v0.4l1-1h-0.9c1.1-4.4,2.3-8.7,3.9-13c0.7-1.7,1.4-3.4,2-5.1V87l1-1v-1l-0.5,0.5
	c0.2-0.5,0.4-1,0.5-1.5l1-2c1.7-3.8,3.6-7.1,5.4-9.7L245,73l1.9-2.8c0.1-0.1,0.2-0.2,0.3-0.4L249,68l0.2-0.3c0.6-0.6,1.2-1,1.7-1.3
	c-0.5,0.4-1.2,0.9-1.9,1.7c1.4-1.4,2.6-2.1,3.4-2.2c-0.1,0-0.2,0-0.3,0c0.7-0.2,1.3-0.1,1.8,0.2c0.6,1.3,0.5,5.5-0.3,10H253v1
	l0.6-0.6c-0.4,2.3-1,4.6-1.6,6.6c-1.1,2.3-2.1,4.6-3,7c-0.3,0.7-0.7,1.3-1,2c-1-1-1,0-2,2l-1,2l3-4c-1.9,3.8-3.8,7.6-5.9,11.4
	L241,105l0.4-0.4c-2.5,4.5-5.1,9-7.9,13.4l0.5-1l2-4l-1.8,2.8c0.9-1.6,1.8-3.2,2.8-4.8l1-1.5v0.5l1-2c1.2-2.4,2.3-4.8,3.4-7.2
	L242,102l2-4l-0.6,0.6c3.6-8.1,6.8-16.3,9.6-24.6l1-1c0-0.8,0-1.4-0.1-1.8L254,71l-0.9-3.7c0.4,0.4,0.7,0.9,0.9,1.7c0-3-2-4-5-1
	l-1.8,2.8c-0.4,0.5-0.9,1-1.3,1.5L246,72l-1,1l-1,2c-0.7,1.3-1.3,2.5-1.8,3.8L242,79v0.2c-0.3,0.8-0.7,1.6-1,2.4V81l-1,2l0.8-0.8
	c-0.7,1.9-1.3,3.8-1.8,5.8c-2.9,7.3-5.4,14.8-7.3,22.3L231,111c0,0.6,0,1.1,0.2,1.2c-0.2,0.8-0.4,1.6-0.6,2.4l-0.3-0.3
	C230.7,111.4,231.3,108.5,232,105.6z M230,116v1l0.1-0.2c-0.1,0.6-0.3,1.2-0.4,1.8l-0.4,0.7L230,116z M229,121l0.2-1h0.2
	c-0.1,0.7-0.3,1.3-0.4,2v1v1l3.4-4.2c-1.1,1.8-2.2,3.5-3.4,5.2h-1L229,121z M175.5,119.5c0,0.1,0,0.1,0,0.2
	C175.5,119.6,175.4,119.5,175.5,119.5L175.5,119.5z M152.6,77.6l0.1,0.1c0.1,0.4,0.2,0.8,0.4,1.2C153,78.5,152.8,78.1,152.6,77.6z
	 M155.7,85.5c0.1,0.2,0.2,0.4,0.3,0.5l0.1,0.3C156,86,155.9,85.8,155.7,85.5z M155,68c-0.3-0.3-0.6-0.6-0.8-0.8c1,0.5,2,1.5,2.6,2.5
	C156.2,68.9,155.5,68.4,155,68z M161.7,98.7c-0.3-0.6-0.6-1.3-0.9-1.9l0.1,0.1c0.4,0.7,0.7,1.4,1.1,2.1L161.7,98.7z M167,109
	c-0.8-1.4-1.5-2.8-2.3-4.3l0.3,0.3l-1-2v0.3c-0.7-1.3-1.3-2.7-2-4V99c1,2,2,4,3,6c1.2,1.9,2.4,3.8,3.6,5.6L167,109z M166,88
	c-2.4-7.9-6-14.6-8.9-18h0.9c-1-2-5-4-6-4v1c-1.3,0.6-0.9,4.9,0.5,10h-0.1c-0.1-0.3-0.3-0.7-0.4-1c-0.1-0.5-0.2-0.9-0.4-1.4L152,75
	l-0.5-1c-1.3-6.1-0.1-10.8,3.5-8l2,2l5,9c0.8,1.4,1.6,2.8,2.3,4.3L164,81l1,2v-0.2c2,4.3,3.7,8.7,5,13.2v1l1,1l2,8
	c0.5,2.3,0.9,4.7,1.4,7H174l0.5,0.5c0.2,1,0.4,2.1,0.5,3.1v0.4l0.1,0.2c0.1,0.6,0.2,1.2,0.3,1.8h-0.1c-0.5-1.3-0.9-2.6-1.3-4
	C171.3,106,168.6,97,166,88z M175,122c-0.2-0.4-0.5-0.9-0.7-1.3l1.7,2.3l-0.4-1.5c-0.1,0-0.6-0.5-1.6-1.5l-1-2v0.4
	c-0.2-0.3-0.4-0.7-0.6-1l0.6,0.6l-1.2-1.6c-0.2-0.3-0.4-0.7-0.6-1L170,113v0.5c-0.3-0.5-0.7-1-1-1.6v-0.8c1.9,2.9,3.9,5.7,6,8.5v0.3
	c0.2,0.5,0.4,0.8,0.5,1.1l-0.3-1.1c0.1,0.2,0.3,0.3,0.4,0.5c0.1,0.8,0.3,1.7,0.4,2.5L175,122z M134.6,111.3c1.1,1.2,2.3,2.4,3.4,3.6
	v0.1l0.3,0.3c2.1,2.4,4.2,4.8,6.2,7.2L144,122l0.5,1l-1.5-2l-8-8.7l-1-1.3L134.6,111.3z M127.8,104.5l-0.5-0.3
	c-0.2-0.2-0.4-0.4-0.6-0.6l-0.3-0.4C126.9,103.7,127.4,104.1,127.8,104.5z M154,140.5V140h-1h-1c-1.8-1.1-3.5-2.5-5-4
	c-5.1-2.7-9.8-6.1-14-10c-5.1-4.5-9.8-9.4-14.2-14.5l2.2,1.5l-1-1c-1.4-1.4-2.3-2.1-2.8-2.3c-0.7-0.9-1.5-1.8-2.2-2.7l-1-2v-1l-2-4
	l-1-1c0-4,2-5,6-3c2.5,1.4,4.9,3.1,7,5c0.3,0.3,0.6,0.6,0.9,0.9l0.1,0.1l2,2l3,3l1,1l1,1l-0.7-1.1c0.8,0.8,1.6,1.6,2.4,2.4L133,110
	l-1-1c0.2,0.3,0.5,0.6,0.7,0.9L131,108c-5.1-4.5-8.6-7.7-11.5-9.7L121,99l-1-1h-0.9c-0.1-0.1-0.3-0.2-0.4-0.3L118,97l-1.7-0.6
	c-0.4-0.2-0.8-0.3-1.3-0.4h-3c-2.8,3.7,10,19.5,26.3,33H138l2,2l-0.5-1c0.8,0.7,1.7,1.3,2.5,2l2.8,1.8l2.2,2.2l2,1l2,1
	c-0.4-0.3-0.8-0.6-1.2-1l6.2,4c-1.5-3.1-3.2-6.1-5-9l0,0l0,0c-0.6-1-1.3-2-2-3l-3-4l1,1l-0.5-1c2.3,2.9,4.5,5.9,6.7,8.9L151,131l1,2
	l1.8,1.8c0.7,1.1,1.5,2.1,2.2,3.2l0.5,2H156l0.7,0.7l0.3,1.3L154,140.5z M95,138h-3l-4.3-0.7C89.5,137.2,91.9,137.4,95,138z
	 M142.7,164.7L142,164h-1l0.4,0.4c-0.4-0.1-0.9-0.2-1.4-0.4h-4c-3.4-0.5-6.7-1.3-10-2.3V161h1l-4-1l1,1h1l0.5,0.5
	c-0.5-0.2-1-0.3-1.5-0.5h-2c-2.3-1.1-4.6-2.1-7-3h-2l-1-1l-5-2c-17.7-6.2-27.1-15.3-21.3-17.3l-0.3,0.7c-0.6,0.4-0.7,1.1-0.3,1.9
	v0.7l1,1l-0.2-0.5c1.4,1.8,4.3,4.1,8.1,6.5h-1l1,1h1l-0.8-0.8c1.8,1.1,3.9,2.2,6,3.3c-0.1,0.1,0.4,0.6,1.8,1.5l3,1l-2-1
	c-0.3-0.2-0.6-0.4-0.8-0.5c3.7,1.8,7.8,3.3,11.8,4.5l1,1h1l-0.5-0.5l1.5,0.5c3.6,1.2,7.3,2.2,11,3.1v0.9h1l-0.9-0.9
	c4.9,1.2,9.9,2.2,14.9,2.9h-1c2,1,2,0,1-1l-6.1-4.2L136,158c-0.3-0.2-0.7-0.4-1-0.5l-5-3.5l2.9,2.3c-1.3-0.7-2.6-1.5-3.9-2.3l-1-1
	l-5-3l0.6,0.6c-1-0.5-2-1.1-3.1-1.6h0.5l-1-1h-1.4c-3.5-1.7-7-3.4-10.5-5h2l-3-1l1,1c-2.3-1-4.6-2-6.9-2.9l2.9,1l-2-1h-1
	c-1.3-0.5-2.6-1.1-3.9-1.6c3.8,0.8,7.4,2,10.9,3.6c6.9,2.8,13.6,6.1,20,10l2,1l1,1l2,1l2,2h1l3,3
	C144.7,163.3,145.8,165.2,142.7,164.7z M131,189c0.4,0.1,0.7,0.1,1,0.2v0.6c-0.2-0.1-0.6-0.1-1-0.2V189h-2l0.8,0.4
	c-0.8-0.1-1.7-0.3-2.8-0.4l-3-1l-0.1-0.1C126.3,188.3,128.6,188.7,131,189z M122.8,187.8L122.8,187.8c-0.4-0.1-0.9-0.1-1.4-0.2
	C121.9,187.6,122.3,187.7,122.8,187.8z M79,186c-1,0.5-1.8,1-2.4,1.5c0.1,0,0.2-0.1,0.3-0.1c-1.6,1-2,2.5-0.9,3.7
	c1.4,1,3.4,1.8,6,2.4v0.4l-2-0.6V193h-0.7l-3.3-1c-2-1-2-3,0-5c2-1,3-2,8-2l2.7-0.9L93,185c3.2,0,5.5,0,6.6-0.3l4.4,0.3
	c4.6,0.7,9.2,1.4,13.8,2c-4.6-0.6-9.2-1-13.8-1h2l-3-1h-1l1,1H84h-2c-0.9,0-1.8,0.1-2.6,0.3L80,186H79z M132,192
	c-3.1,0.3-6.3,0.7-9.4,1.2l0.4-0.2h-2l-1.2,0.6c-2.9,0.4-5.9,0.9-8.8,1.4h-9h-9c-1.7-0.2-3.3-0.2-5,0h-2l-3.3-1H83l-0.5-0.5
	c5,1.1,11.8,1.5,19.5,1.5c9.1-0.6,18.1-1.9,27-4c2.5-0.5,3.8-0.8,3.5-1h0.5l-0.7-0.7c1,0.2,1.6,0.5,2.1,0.7H134l-1,1l1.6-0.8
	C135.4,190.8,134.4,191.4,132,192z M206.8,104.2l-0.7,0.7c0.4-3,0.7-6,0.9-8.9l0.6,0.6C207.4,99.1,207.1,101.7,206.8,104.2z
	 M207.6,96H207c0-0.6,0.1-1.2,0.1-1.9l0.6,0.6C207.7,95.1,207.7,95.6,207.6,96z M202.6,122.3l0.9,0.4
	C203.2,122.9,202.9,122.8,202.6,122.3z M203.8,122h-1.4c-0.1-0.3-0.3-0.6-0.4-1l-1-2c-0.7-3.7-1.4-7.3-1.9-11h0.9l-1-1v0.2
	c-0.2-1.4-0.4-2.8-0.6-4.3l0.6,1.1v-2l-0.7-0.7c-0.4-3.6-0.7-7.2-0.9-10.9L198,93v-6c-0.4-0.4-0.7-0.5-0.8-0.2
	c-0.1-2.6-0.2-5.2-0.2-7.8l0.6-10.1L198,68v-2l-0.3,0.6L198,61c0.5-3.2,1.7-5.3,2.9-5.9L200,56l-1,2l1.9-2.9c1-0.5,2.1,0.1,3.1,1.9
	c0.2,0.2,0.3,0.4,0.5,0.5L205,59l1,1l-0.9-1.7c1.5,1.9,2.3,4.1,2.6,8.5L207,66l0.9,2.7C208,70.2,208,72,208,74
	c0.3,6.4,0.2,12.8-0.2,19.2l-0.7,0.7c0.6-10.2,0.3-20.5-1-30.7L207,64v-1l-1-1c-1-4-3-7-5-5l-1,2l-1,2c-1.7,17-1.1,34.2,1.7,51H200
	l1,2v-0.3c0.3,1.8,0.6,3.5,1,5.3c0,1.7,1.4,3.4,1.9,2.6C203.8,121.8,203.8,121.9,203.8,122z M205.7,111.3c-0.4,2.1-0.7,4.1-1.2,6.2
	L204,118c0,0.6,0,1.1,0.2,1.2c-0.1,0.3-0.1,0.6-0.2,0.8c0,0.4,0,0.7,0,1h-1c0.3-0.3,0.5-1.5,1-4c0.8-3.8,1.5-7.7,2-11.6v2.6l0.5-2.1
	c-0.2,1.5-0.4,2.9-0.7,4.4L205,112L205.7,111.3z M126,118l1,1l-1.3-0.7c0.1,0.2,0.2,0.4,0.3,0.7l-0.7-0.8L125,118l-1-1l0.7,0.3
	L122,114l3,3c0.1,0.2,0.2,0.4,0.3,0.7L126,118z M130,122l1,1l-1.3-0.7l0.3,0.7l-1-1l-1-1l-1-2l2,2l0.3,0.7L130,122z M118,109l1,2
	l-1-1l-2-2L118,109z M156,141l-2-1l-3-2L156,141z M327,187l-1-1c1.1,0,2.2,0.6,3,1.6V187l1,1v1l-0.3-0.3c0,0,0,0,0,0.1l-0.1-0.1
	L329,188v-0.1C328.5,187.5,327.9,187.2,327,187z M153,135l-1-2l3,5L153,135z M199.4,59.4L199,61v-1L199.4,59.4z M127,192l2-1h3
	L127,192z M330,190l-0.3,0.1c0.2-0.4,0.2-0.9,0-1.3C329.9,189.2,330,189.6,330,190z M166,87l1,2v1L166,87z M87,144l-1-2l1,1V144z
	 M170,98l1,2l-1-1V98z M172,106l1,1v1l-1-1V106z M201,56v1l-1.6,2.4L200,57L201,56z M169,95l1,2l-1-1V95z M175.6,121.5l-0.1-0.4
	C175.6,121.3,175.7,121.5,175.6,121.5z M306,151l2-1l-3,2L306,151z M75.3,190.5c0.2,0.2,0.4,0.4,0.7,0.5l1,1
	C76.2,191.5,75.7,191,75.3,190.5z M290,146l-2,1l1-1H290z M300,141h1l-1,1C299,142,298,142,300,141z M290,96C291,95,291,96,290,96
	L290,96z M89,145l4,3l-2-1C90.3,146.4,89.6,145.7,89,145z M132,162l1,1h-1l-1-1H132z M76.6,187.5c-1.3,1-1.8,1.9-1.5,2.6
	C74.6,189.1,75,188.1,76.6,187.5z M302,153l3-1l-5,2L302,153z M291,157l2-1h1L291,157z M84,194l2,1l-3-1H84z M132,124l2,2l-2-1l-1-2
	L132,124z M148,127l1,2l-2-3L148,127z M259,125C260,123,261,123,259,125L259,125z M142,133l-2-2l2,1C144,134,144,134,142,133z
	 M259,135l2-1l-2,2V135z M120,159l1,1h-1V159z M236,95l-1,1l1-2V95z M99,151l3,2l-2-1L99,151z M296,143h-1l2-1
	C300,141,299,141,296,143z M252.4,65.8c1-0.1,1.6,0.6,1.6,2.2C253.5,66.6,253.1,65.9,252.4,65.8z M171,101v-1l1,4L171,101z M242,78
	v1l-1,2L242,78z M152,139v1l-3-3L152,139z M202,120l-1-1v-1l1,1V120z"/>
</svg>
