<?xml version="1.0" encoding="utf-8"?>
<!-- Generator: Adobe Illustrator 23.0.3, SVG Export Plug-In . SVG Version: 6.00 Build 0)  -->
<svg version="1.0" id="Layer_1" xmlns="http://www.w3.org/2000/svg" xmlns:xlink="http://www.w3.org/1999/xlink" x="0px" y="0px"
	 viewBox="0 0 300 120" style="enable-background:new 0 0 300 120;" xml:space="preserve">
<style type="text/css">
	.st0{fill:#FEFFFF;}
	.st1{fill:#FFFFFF;}
	.st2{fill:none;}
</style>
<g>
	<path class="st0" d="M43.8,46.1h-2.5v-6.1h2.5V46.1z M43.8,90.2h-2.5V53.3h2.5V90.2z"/>
	<path class="st0" d="M50.2,53.3h16V56h-16v15.1c0,2.2,0.6,4.4,1.7,7.2c0.6,1.7,2.2,3.6,5,6.1c3.3,2.2,6.9,3.3,10.2,3.3h0.3v2.8l0,0
		c-5.8,0-10.7-2.2-14.9-6.1c-3.3-3.9-5-8.5-5-14V40.1h2.8C50.2,40.1,50.2,53.3,50.2,53.3z"/>
	<path class="st0" d="M73.3,46.1h-2.5v-6.1h2.5V46.1z M73.3,90.2h-2.5V53.3h2.5V90.2z"/>
	<path class="st0" d="M79.3,74L79.3,74c6.9,0,12.7-2.8,17.4-8c2.5-3.3,4.4-6.6,5-10.2l0.3-2.5h2.5c-0.3,3.6-1.1,6.3-2.2,8.8
		c-0.8,2.2-2.8,5-6.1,8.3c-0.3,0-0.6,0.3-1.1,0.8c-0.8,0.6-1.1,0.8-1.4,0.8v0.3c2.8,0.3,5.8,1.4,8.8,3.3c4.7,3.9,7.2,8.5,7.2,14.3
		v0.3h-2.8v-1.4c0-1.7-0.8-3.9-2.2-6.9c-3.3-4.7-7.7-7.2-13.8-7.2c-1.1,0-3.3,0.3-7.2,1.4l-4.1,0.6l0,0v13.5h-2.8V40.1h2.8L79.3,74
		L79.3,74z"/>
	<path class="st0" d="M125.1,53.3h22.6V56h-23.1c-3.9,0-6.6,1.7-7.7,5c-0.3,1.1-0.6,1.9-0.6,2.8c0,2.2,0.8,3.9,2.8,5.5
		c1.4,1.1,2.8,1.7,3.9,1.7h16.3c2.2,0.3,3.9,1.1,5.5,2.2c1.7,1.4,2.5,3,2.8,4.7l0.3,1.4v2.5c-0.3,1.9-1.1,3.9-2.8,5.5
		c-1.4,1.1-2.8,2.2-5,2.5h-2.5h-23.7v-2.5h23.1c4.4,0,6.9-1.9,8-5.2l0.3-1.9c0-3-1.4-5.2-4.4-6.6l-2.2-0.6h-14.9
		c-2.2,0-4.1-0.6-6.1-1.9c-2.8-2.2-3.9-5-3.9-8.3c0-3,1.1-5.8,3.6-8C119,54.1,121.5,53.3,125.1,53.3z"/>
	<path class="st0" d="M153.7,61.8L153.7,61.8c1.9-3,4.4-5.2,8.3-6.9c2.2-1.1,5-1.4,8-1.4h0.6c3.3,0,6.9,1.4,10.7,3.9
		c2.8,2.2,4.7,4.7,5.5,7.2c0.8,1.7,1.4,4.4,1.4,8.3v17.6h-2.8V72.3c0-7.2-3.3-12.1-10.2-14.9c-1.4-0.6-3.3-0.8-5.8-0.8
		c-3.9,0-7.7,1.4-11,4.1l-1.1,0.8c-2.2,2.8-3.6,6.6-3.6,11.8v16.8H151V39.8h2.8V61.8L153.7,61.8z"/>
	<path class="st0" d="M209.1,53.6c7.4,0,12.9,2.8,16.5,8.3v-8.3h2.8v36.6h-2.8v-8.3c-2.2,3.6-5.5,6.1-10.2,7.4
		c-1.7,0.6-3,0.8-4.1,0.8h-1.1c-4.7,0-8.3-1.1-11.6-3.3c-3-2.2-5.2-5-6.6-8.8c-0.8-2.5-1.1-4.4-1.1-6.3c0-2.8,0.8-5.8,2.2-9.4
		c2.5-4.1,6.1-6.9,10.7-8.3C206.9,53.8,208.5,53.6,209.1,53.6z M194.2,71.5L194.2,71.5v0.3l0,0v0.6c0,5.8,2.5,10.2,8,13.2
		c2.5,1.4,5,1.9,7.4,1.9h0.8c4.7,0,8.8-1.9,12.1-5.5c2.2-3,3.3-6.3,3.3-10.2c0-5-1.9-9.1-5.8-12.1c-3-2.2-6.3-3.3-9.6-3.3h-0.8
		c-3.9,0-7.4,1.4-10.7,4.4C195.9,63.8,194.2,67.3,194.2,71.5z"/>
	<g>
		<path class="st0" d="M52.6,28c0,3-2.5,5.5-5.5,5.5H31.7v51.8c0,3-2.5,5.5-5.5,5.5s-5.5-2.5-5.5-5.5V33.5H5.8c-3,0-5.5-2.5-5.5-5.5
			s2.5-5.5,5.5-5.5h41.6C50.2,22.7,52.6,24.9,52.6,28z"/>
	</g>
	<path class="st0" d="M247.1,28v57c0,3-2.5,5.5-5.5,5.5s-5.5-2.5-5.5-5.5V38.7c-1.9,0.8-4.1,1.4-6.1,1.4c-3,0-5.5-2.5-5.5-5.5
		s2.5-5.5,5.5-5.5c1.9,0,5.2-1.7,7.2-4.1l0,0c0,0,0-0.3,0.3-0.3c0,0,0-0.3,0.3-0.3l0.3-0.3c0,0,0,0,0.3-0.3c0,0,0,0,0.3,0l0.3-0.3
		l-0.3-0.6c0,0,0.3,0,0.3-0.3h0.3c0,0,0,0,0.3,0h0.3h0.3h0.3h0.3h0.3h0.3h0.3c0.3,0,0.3,0,0.3,0l0,0l0,0h0.3h0.3h0.3h0.3h0.3h0.3
		h0.3h0.3h0.3l1.1,0.3c0,0,0,0,0.3,0l0.3,0.3l0,0l0,0l0.3,0.3c0,0,0,0,0.3,0.3l0.3,0.3c0,0,0,0.3,0.3,0.3c0,0,0,0,0.3,0
		c0,0,0,0.3,0.3,0.3v0.3l0.3,0.3v0.3v0.3l0,0.6c0,0,0,0,0,0.3l0,0v0.3v0.3v0.3v0.3C246.8,27.7,247.1,27.7,247.1,28L247.1,28z"/>
	<path class="st0" d="M295.8,57.7c-1.1,2.8-2.2,5.5-3.6,8.3l-9.4,21.5c-0.8,2.2-2.8,3.3-5,3.3c-0.8,0-1.4-0.3-2.2-0.6
		c-2.8-1.4-4.1-4.4-2.8-7.2l7.4-17.4c-0.8,0-1.7,0-2.5,0c-11.8,0-21.8-9.6-21.8-21.5s9.6-21.8,21.8-21.8c12.1,0,21.8,9.6,21.8,21.8
		C299.4,48.9,297.8,53.3,295.8,57.7z M277.7,54.7c5.8,0,10.7-4.7,10.7-10.7s-5-10.7-10.7-10.7c-5.8,0-10.7,5-10.7,10.7
		S271.6,54.7,277.7,54.7z"/>
	<g>
		<path class="st1" d="M141.9,37.3c0-0.5,0-0.9,0.1-1.3c0.1-0.4,0.2-0.8,0.4-1.1s0.4-0.7,0.7-1c0.3-0.3,0.7-0.7,1.2-1
			c0.3-0.2,0.6-0.4,0.9-0.5c0.3-0.2,0.6-0.4,0.8-0.6c0.2-0.2,0.4-0.4,0.6-0.6c0.2-0.2,0.2-0.5,0.2-0.8c0-0.2,0-0.4-0.1-0.6
			c-0.1-0.2-0.2-0.4-0.3-0.5s-0.3-0.3-0.5-0.4s-0.5-0.1-0.7-0.1c-0.3,0-0.5,0-0.8,0.1c-0.2,0.1-0.4,0.2-0.6,0.4
			c-0.2,0.1-0.3,0.3-0.5,0.5c-0.1,0.2-0.2,0.3-0.3,0.4L142,29c0.1-0.1,0.2-0.2,0.4-0.4c0.2-0.2,0.4-0.4,0.7-0.5
			c0.3-0.2,0.6-0.3,1-0.5c0.4-0.1,0.8-0.2,1.2-0.2c0.4,0,0.8,0.1,1.2,0.2c0.4,0.1,0.7,0.3,0.9,0.6c0.2,0.3,0.4,0.5,0.6,0.9
			c0.1,0.3,0.2,0.7,0.2,1.1c0,0.4-0.1,0.8-0.2,1.2c-0.2,0.3-0.4,0.6-0.6,0.9c-0.2,0.3-0.5,0.5-0.8,0.6c-0.3,0.2-0.5,0.3-0.7,0.5
			c-0.2,0.1-0.4,0.3-0.7,0.5c-0.3,0.2-0.5,0.4-0.8,0.6c-0.2,0.2-0.4,0.5-0.6,0.7c-0.2,0.3-0.3,0.6-0.3,0.9h4.9v1.4H141.9z"/>
		<path class="st1" d="M157,32.3c0,0.8-0.1,1.4-0.3,2.1s-0.4,1.2-0.8,1.6s-0.7,0.8-1.2,1.1c-0.4,0.3-0.9,0.4-1.4,0.4
			c-0.5,0-1-0.1-1.5-0.4c-0.4-0.3-0.8-0.6-1.1-1.1c-0.3-0.5-0.6-1-0.8-1.6s-0.3-1.3-0.3-2.1c0-0.8,0.1-1.4,0.3-2.1s0.4-1.2,0.8-1.6
			c0.3-0.5,0.7-0.8,1.1-1.1c0.4-0.3,0.9-0.4,1.5-0.4c0.5,0,1,0.1,1.4,0.4c0.4,0.3,0.8,0.6,1.2,1.1s0.6,1,0.8,1.6S157,31.6,157,32.3z
			 M155.7,32.3c0-0.6-0.1-1.1-0.2-1.5c-0.1-0.5-0.3-0.9-0.5-1.2c-0.2-0.3-0.5-0.6-0.7-0.8s-0.6-0.3-0.9-0.3c-0.4,0-0.7,0.1-1,0.3
			s-0.5,0.4-0.7,0.8c-0.2,0.3-0.4,0.7-0.5,1.2c-0.1,0.5-0.2,1-0.2,1.5c0,0.6,0.1,1.1,0.2,1.5s0.3,0.9,0.5,1.2
			c0.2,0.3,0.5,0.6,0.7,0.8s0.6,0.3,1,0.3c0.3,0,0.7-0.1,0.9-0.3s0.5-0.4,0.7-0.8c0.2-0.3,0.4-0.7,0.5-1.2
			C155.6,33.4,155.7,32.9,155.7,32.3z"/>
		<path class="st1" d="M158.7,33.3V32h4.2v1.4H158.7z"/>
		<path class="st1" d="M164.4,37.3c0-0.5,0-0.9,0.1-1.3c0.1-0.4,0.2-0.8,0.4-1.1c0.2-0.4,0.4-0.7,0.7-1c0.3-0.3,0.7-0.7,1.2-1
			c0.3-0.2,0.6-0.4,0.9-0.5c0.3-0.2,0.6-0.4,0.8-0.6s0.4-0.4,0.6-0.6c0.2-0.2,0.2-0.5,0.2-0.8c0-0.2,0-0.4-0.1-0.6
			c-0.1-0.2-0.2-0.4-0.3-0.5s-0.3-0.3-0.5-0.4c-0.2-0.1-0.5-0.1-0.7-0.1c-0.3,0-0.5,0-0.8,0.1c-0.2,0.1-0.4,0.2-0.6,0.4
			c-0.2,0.1-0.3,0.3-0.5,0.5c-0.1,0.2-0.2,0.3-0.3,0.4l-0.8-1.1c0.1-0.1,0.2-0.2,0.4-0.4c0.2-0.2,0.4-0.4,0.7-0.5
			c0.3-0.2,0.6-0.3,1-0.5c0.4-0.1,0.8-0.2,1.2-0.2c0.4,0,0.8,0.1,1.2,0.2c0.4,0.1,0.7,0.3,0.9,0.6c0.2,0.3,0.4,0.5,0.6,0.9
			c0.1,0.3,0.2,0.7,0.2,1.1c0,0.4-0.1,0.8-0.2,1.2c-0.2,0.3-0.4,0.6-0.6,0.9s-0.5,0.5-0.8,0.6c-0.3,0.2-0.5,0.3-0.7,0.5
			c-0.2,0.1-0.4,0.3-0.7,0.5c-0.3,0.2-0.5,0.4-0.8,0.6c-0.2,0.2-0.4,0.5-0.6,0.7c-0.2,0.3-0.3,0.6-0.3,0.9h4.9v1.4H164.4z"/>
		<path class="st1" d="M176.6,33.3c0.6,0.1,1.1,0.5,1.5,1c0.4,0.5,0.5,1.2,0.5,2c0,0.5-0.1,1-0.2,1.4c-0.2,0.4-0.4,0.8-0.7,1.1
			c-0.3,0.3-0.7,0.5-1.1,0.7c-0.4,0.2-0.9,0.2-1.4,0.2c-0.7,0-1.4-0.2-1.9-0.5c-0.5-0.3-1-0.8-1.3-1.4l0.8-1
			c0.2,0.5,0.5,0.8,0.9,1.1c0.4,0.3,0.9,0.4,1.5,0.4c0.7,0,1.2-0.2,1.6-0.5c0.4-0.4,0.6-0.9,0.6-1.6s-0.2-1.3-0.6-1.7
			c-0.4-0.4-1-0.6-1.8-0.6h-0.4v-1.3h0.4c0.7,0,1.2-0.2,1.6-0.6s0.6-0.9,0.6-1.5c0-0.6-0.2-1.1-0.5-1.3c-0.4-0.3-0.8-0.4-1.3-0.4
			c-0.5,0-1,0.1-1.4,0.4c-0.4,0.3-0.7,0.6-0.9,1.1l-0.8-1c0.1-0.3,0.3-0.5,0.5-0.8c0.2-0.2,0.5-0.4,0.7-0.6c0.3-0.2,0.6-0.3,0.9-0.4
			c0.3-0.1,0.7-0.1,1-0.1c0.5,0,0.9,0.1,1.2,0.2s0.7,0.4,1,0.6c0.3,0.3,0.5,0.6,0.6,1s0.2,0.8,0.2,1.2c0,0.3,0,0.7-0.1,1
			c-0.1,0.3-0.2,0.6-0.4,0.8c-0.2,0.3-0.3,0.5-0.6,0.6C177.2,33.1,176.9,33.2,176.6,33.3z"/>
		<path class="st1" d="M185.4,28.1v9.3h-1.3V25.2h1l6.3,9.4v-9.4h1.3v12.1h-1.1L185.4,28.1z"/>
		<path class="st1" d="M198.1,37.5c-0.6,0-1.1-0.1-1.5-0.4c-0.5-0.3-0.9-0.6-1.2-1c-0.3-0.4-0.6-0.9-0.8-1.5
			c-0.2-0.6-0.3-1.1-0.3-1.8c0-0.6,0.1-1.2,0.3-1.8s0.4-1,0.8-1.5c0.3-0.4,0.7-0.8,1.2-1c0.5-0.3,1-0.4,1.5-0.4
			c0.6,0,1.1,0.1,1.5,0.4c0.5,0.3,0.9,0.6,1.2,1c0.3,0.4,0.6,0.9,0.8,1.5s0.3,1.1,0.3,1.8c0,0.6-0.1,1.2-0.3,1.8s-0.4,1-0.8,1.5
			c-0.3,0.4-0.7,0.8-1.2,1C199.2,37.4,198.7,37.5,198.1,37.5z M195.6,32.9c0,0.5,0.1,0.9,0.2,1.3s0.3,0.7,0.5,1
			c0.2,0.3,0.5,0.5,0.8,0.7c0.3,0.2,0.6,0.3,1,0.3c0.3,0,0.7-0.1,1-0.3c0.3-0.2,0.6-0.4,0.8-0.7c0.2-0.3,0.4-0.7,0.5-1.1
			c0.1-0.4,0.2-0.8,0.2-1.3c0-0.5-0.1-0.9-0.2-1.3c-0.1-0.4-0.3-0.8-0.5-1.1c-0.2-0.3-0.5-0.5-0.8-0.7s-0.6-0.3-1-0.3
			c-0.3,0-0.7,0.1-1,0.3c-0.3,0.2-0.6,0.4-0.8,0.7c-0.2,0.3-0.4,0.7-0.5,1.1C195.7,32,195.6,32.4,195.6,32.9z"/>
		<path class="st1" d="M205.3,37.3l-3-8.9h1.3L206,36l2.4-7.6h1.2l-3,8.9H205.3z"/>
	</g>
	<g>
		<rect x="208.8" y="24.1" class="st2" width="40.3" height="32"/>
		<path class="st1" d="M215.1,31.3c0-3,1.6-5.5,4.3-6.9l0.8,1.5c-2,1.1-3.1,2.9-3.1,5.2l0.6,2.3l-1.7-2c0.5-0.6,1.2-1,1.9-1
			c1.2,0,2.1,0.9,2.1,2.2c0,1.3-0.9,2.3-2.2,2.3C216.2,35,215.1,33.6,215.1,31.3z"/>
	</g>
</g>
<g>
</g>
<g>
</g>
<g>
</g>
<g>
</g>
<g>
</g>
</svg>
