<svg id="Layer_1" data-name="Layer 1" xmlns="http://www.w3.org/2000/svg" width="373.7873" height="337.3923" viewBox="0 0 373.7873 337.3923"><title>logo_smvdu</title><path d="M298,316a514.9894,514.9894,0,0,0-66-1v2l1,1c0,2,2,2,12,2h9v5l-1-1h-1l-1-1h-2l-4-1-3,1h-2l-1,1-1,1-1,1-1,1v5l1,1,2,3,1,1h1v1l-2,1-1,1v2q3,3,6,0l2-1h1l1-1h1v-1h1l1-1h1l1-1c1-1,1,0,1,3l1,4,1,1h2V320h19v2h-6l-6,1-2,1v5l2,3v2c-2,2,0,10,2,10l1,1h1l1,1h1l3,2h1l1,1h3v-3h-1l-4-2h-1l-1-1-3-3v-2l1-2,1-1c1-2,3-2,5-2h2v1l-1,1-3,2a4.3016,4.3016,0,0,0,4,4v1h1v1h1l3-3h6v4h1l1,1h2V320h3q6,0,3-3Zm-52,18c-3,1-5,0-5-1l-1-1c0-3,3-5,3-3l1,2,2,1v1l1,1Zm6-2-1,1h-1l-1-1v-1l-1-1-1-1-1-2-1-1h3l3,1h1l2,3Zm37-4v7h-3l-3-1-1-1-2-2-1-2h-8l-1,1h-1l-2-1c0-2,0-2,7-2s7,0,7-4v-3h8ZM175,288H165V240l1-51,1-1,1-2,1-1,1-1,2-1h6l2,1,1,1,2,2,1,1q2.0637,49.4728,2,99Zm38,21-2,2c0,2-1,1-3,0l-2-2,1-2,1-2c2-1,2-1,4,1C214,307,215,309,213,309Zm29-21H231l-11-1,1-94v-3l1-1,1-2h1l2-2,1-1,1-1h7l5,4q2.7282,49.95,2,100ZM212,188q2.3176,49.4646,2,99H192l1-94v-3h1v-1l1-1v-1l3-2,1-1,1-1h7l1,1,3,3Zm5,129c0-2,1-2-51-2H115v-1c-1-3-1-6,1-7l5-2,1,1,2,1,6,5,1,1c2,0,2-2,0-4l-2-1v-1l-3-2-3-2-1-1h-2l-1-1-2,1h-3v1l-4,3v6l1,1,1,1,1,1h-6v2l2,2,2,1h2v24h1l1,1h2V320h23v6l-3-2-1-1h-2l-3-1-4,1h-1l-1,1-2,2-1,1v5h1c0,2,3,6,5,6h1l2,1h4l1-1h2l1-1,1-1v3l1,5,2,1h2V320h26v2H151v4h1l2,1,2,1h1l1,2,1,1v4l-1,1-2-1-2-1h-4v5l3,2h2l2,1,2,3c3,3,4,3,5,2s1-1-2-4l-2-2,1-1,1-1h1l2-2v-6l-4-4c-1-1-1-1,4-1h6l-1,8c0,9,0,9,2,10l1,1h2V320h6v11l1,13h2l2,1h1V320h21v6h-8l-8,1h-1v4h1v1l2,2c3,3,5,2,5-2v-1h9v6l1,7,1,1h2V320h3q6,0,3-3Zm-88,18-1-1-1-1v-3l2-3h6l1,1h1l2,3ZM368,134l-1-2-1-1v-1h-1v-1l-1-1-1-1v-1l-2-2-3-4-2-2-1-2-2-2a314.9947,314.9947,0,0,0-42-40l-4-3-3-3-2-1-4-4-2-2-1-1-1-1q-4.1776-3.8182-8-8a19.9983,19.9983,0,0,0-3-3l-1-1-2-2-2-2-1-1-1-1a24.0025,24.0025,0,0,1-4-5l-2-2a33.0077,33.0077,0,0,0-2-3l-1-1-1-1-2-3V25l-3-6-1-1-2-4-2-2-1,1v2l1,1v3l1,1v2l1,3v1l1,1v2l1,1v2l2,3q2.2,4.4082,4,9v1l1,1v1l1,1v1l1,1,1,1,1,1v1l1,1,1,2v1h1v1l3,4,2,4,1,1,1,1,1,2,2,1,1,2,1,1v1l2,2,1,1,2,3,2,2,5,6,2,1a167.0382,167.0382,0,0,0,12,12q6.2332,7.243,13,14,9.8718,12.213,19,25l1,2,1,1v1l1,1v1l1,1v1l1,1v1l1,1v2l2,4,1,2v2l1,2,1,2v3l1,2v3l1,2v8a34.997,34.997,0,0,1-1,10v4l-1,2v2l-1,2-1,3-1,2v1l-1,1-1,2-1,1v1l-2,2-1,2-2,3-1,1a73.9989,73.9989,0,0,1-18,15h-1l-1,1h-2l-3,2h-1l-2,1h-2l-2,1h-2a88.9956,88.9956,0,0,1-19,0l-1-1h-2l-5-1-1-1h-1v-1h-2l-2-2-2-1-1-1-1-1-1-2-2-1-3-5-1-3v-1l-1-1a60,60,0,0,1,1-27l1-1h1l1,1h3l2,1h4l3,1h3l3,1h6l3,1a163.9951,163.9951,0,0,0,33-2l2-1,1-1h1l1-2v-6h-1l-1-1-1-1h-1v-1h-2l-2-1a239.9954,239.9954,0,0,0-47,3l-3,1h-3l-1,1h-2l-1,1h-5l-1-1h-2l-1-1h-1l-2-1-5-4v-5l1-2,1-1,1-1,2-2v-1h1l4-1,5-1h2l2-1h4l1-1h3l6-2h2l1-1h2l1-1h2l2-1h1l1-1h1l1-1h3l1-1h1l1-1h1l1-1h1l1-1h1l2-1,1-1h1v-1h1l1-1h1l2-2,2-1,3-6,1-1v-2h-1v-1l-1-1-1-1-1-1a33.9978,33.9978,0,0,0-11,1h-3l-1,1h-1l-1,1h-3l-1,1h-1l-1,1h-1l-1,1h-1l-3,2h-1l-1,1h-1l-1,1h-1l-1,1h-2v1h-1l-1,1-3,2h-2l-1,1-1,1h-1l-2,1v1h-2l-1,1v1h-1l-1,1-1,1h-1l-2,1-1,2-2,1-2,2-2,1h-3l-3-1h-3l-1-1-1-1-1-1v-6l1-1v-2l1-1v-1l1-1,1-1,1-1,1-1,2-1h1l1-1,2-1,1-1h1l1-1,2-1,1-1,1-1h1l1-1v-1l2-1,2-1,1-1,1-1,1-1,3-2a126.9986,126.9986,0,0,0,23-27V95l-1-1-4-2-4,1h-2l-1,1-1,1h-1l-1,1-1,1-3,2-2,2-4,4-6,6-2,2-2,3-1,1-4,5-1,1-1,1a10.0013,10.0013,0,0,1-1,2l-1,1v1l-1,1-1,1-1,2-1,1v1l-1,1-1,1v1l-1,1v1l-1,1v1l-1,1c-1,2-4,4-6,4h-1l-2,1h-3l-3-1v-1l-1-3v-9l1-2,1-2,1-1v-1l1-1,1-1,1-1,1-2,1-1,1-3,1-1,1-1v-1l1-2,1-2,1-1,1-1v-1l1-1v-1l1-1,1-1v-2l1-1v-1l1-1V98l2-4,1-1V91h1V90l1-1V86l1-1V84l1-1V81l1-1V79l1-3V67c0-2-2-4-3-4h-4l-2,1-1,1-1,1-1,1-2,3-1,1-1,2-1,1v2l-1,2-1,1v1h-1v2l-1,2-1,3v1l-1,1v2l-1,2-1,2v2l-1,1v1l-1,5-1,1v3l-1,1v2l-1,2v3l-1,3v1l-1,2v4l-1,1,1,2-2,1-1,2-1,2-4,3-1,1-1,1h-4v-1l-1-1-1-1-2-5-1-1v-5l1-1v-4l1-1v-3l1-3v-4l1-2v-3l1-3V95l1-13a95.9971,95.9971,0,0,0-2-21l-1-1c0-3-3-8-5-8h-1l-1-1v1h-1l-4,4-1,1q-.4173,2.02-1,4v2l-1,2V78a60.9993,60.9993,0,0,0,0,14l1,4v5l1,5v4l1,2v2l1,1v3l2,6v5a54.0064,54.0064,0,0,1-4,8l-1,1-1,1h-2l-1-1-1-1q-4.0807-3.4066-8-7l-2-6v-3l-1-2v-1l-1-2v-3l-1-2v-3l-1-1v-3l-1-1v-2l-2-5V95l-1-2V92l-1-1V88l-1-2-1-2V83l-1-1-1-2V79l-1-2-1-1V75l-1-1V73l-1-2-1-1V69l-1-1-5-4-1-1h-4c-2,1-3,2-3,4v3q2.1105,7.9719,4,16v2l1,1,1,2,1,2v1l1,1v1l1,1v2l2,3,1,1q.93,2.0343,2,4l1,1,1,2,1,2,1,2v1l2,2,1,2,1,1,3,4v1l1,1,1,1v1l1,1v1h1v3l1,4-1,1,1,1-1,3v2l-1,1-1,2h-5l-2-1h-2l-1-1h-1v-1l-3-3-2-2v-2l-1-1-1-1-1-1v-2h-1l-1-1-1-2-2-3-1-2-2-2-1-1-1-2-1-1-1-1-1-2-3-2v-1l-2-2q-5.1131-4.8856-10-10a21.9956,21.9956,0,0,0-5-4l-1-1h-2l-1-2h-9l-1,1-1,1v5l1,2,2,4,1,2,1,1v1h1l1,1,1,1,3,4,2,2,1,1q11.8741,10.15,24,20l2,2,2,1,1,1h1l1,1,2,1h1l1,1,3,3,1,4,1,1v7l-5,2h-1l-2,1h-2l-4-1-2-2-1-1-2-2-1-1h-2l-1-1-1-1-1-1-1-1h-1l-1-1-3-1v-1l-2-1-1-1h-2l-1-1h-1v-1l-3-1-2-1h-1l-1-1h-1l-1-1-1-1h-1l-1-1h-2v-1h-2l-1-1h-2l-1-1-2-1h-2l-1-1H96l-1-1H88l-5,1-1,1v1c-1,1-1,5,1,7l1,1,1,1,2,2,3,2,1,1h1v1h1l1,1,2,1h2v1l2,1q6.5651,2.3274,13,5h2l1,1h2l1,1h1l3,1,3,1h5l1,1h3l9,2c4,0,6,1,6,2l2,3,1,1,1,2,1,4-3,3-2,1-1,1-1,1-3,1h-2v1h-6l-1-1h-2l-1-1h-3l-3-1h-2l-1-1h-4l-2-1h-5q-10.9989-.5231-22-1H80l-2,1H76l-1,1-2,1-1,2v5l4,3,1,1h2l2,1h1a163,163,0,0,0,58-4l1,1v3l1,1v1l1,2v17l-2,4v2l-1,1v1l-1,1v1l-1,1v1l-1,1a25.0011,25.0011,0,0,1-7,6l-1,1h-1l-1,1h-1v1h-1l-2,1h-2l-1,1h-2l-2,1h-3l-8,1a36,36,0,0,1-11-1l-1-1H91l-4-1-1-1H85l-1-1-4-2H79l-1-1-1-1-2-1-1-1H73a87.9994,87.9994,0,0,1-16-18l-2-3v-1l-1-1v-1l-1-2q-1.4843-6.5037-3-13l-1-4a86.9985,86.9985,0,0,1,3-25v-1l1-2,1-5,1-1v-2h1v-2l1-1,1-1v-2l2-4,1-1v-1l3-5h1v-1l1-1,2-4h1l1-2,3-3,1-2,1-1,1-2,2-1a67.0121,67.0121,0,0,1,7-8,142.99,142.99,0,0,1,16-16l2-2,2-2q1.8774-2.5956,4-5l2-2,3-3,2-2,1-2,3-3,1-1,1-1V71h1l2-3,1-1V66l1-1,2-3,1-1,2-3,1-1V56l1-1,2-3,1-2,1-1V48l2-3V43h1l1-2V40l1-1V38l1-2,2-4V31l1-1V27l1-1V25l1-1V21l1-2V16l1-2c0-2-1-3-2-2l-2,4-1,2-1,2-1,2-1,2v1l-1,1-2,2v1l-1,1-1,1-1,2-2,2-1,2c-2,1-2,2-2,3h-1l-1,1-3,3-1,1-3,3-3,3-2,2-2,2-2,2-7,6-2,2-3,3a47.9928,47.9928,0,0,1-6,5A104.9955,104.9955,0,0,1,81,87l-1,1-3,2-2,2-3,3-2,2-2,1-1,2-1,1H65a131.002,131.002,0,0,0-25,30l-1,2-2,2-1,2-1,1-1,2-1,1v1l-1,1v1l-1,1-1,1-1,2v1l-1,1v1l-2,4-1,1v1l-1,1v2l-1,1v2l-1,1v2l-1,1v2l-2,5v2l-1,2v3l-1,3a160.9986,160.9986,0,0,0,3,48v1l1,1v1l1,1v2l1,1v2l1,1v1l2,3v1l3,5v1l3,3v1l2,2,2,3,2,2,3,2a56.0017,56.0017,0,0,0,13,10l1,1,1,1h2l1,1,1,1h1l1,1h1l2,1,1,1h1l1,1h2l2,1,2,1h3l1,1h3l3,1h3a75.999,75.999,0,0,0,35-4l1-1h2v-1h1l2-1,1-1,1-1h2l1-1,1-1,2-2,2-2,1-1,2-1,2-2,2-2,1-2,1-1v-1l1-1,1-1v-1l1-1v-1l1-1,1-1v-2l1-2v-1l1-1v-1l1-1v-1l1-2,1-4v-2l1-1v-3l1-2a60.0008,60.0008,0,0,0-1-23l-1-1v-1l-1-2v-2l-1-1-1-1v-1l-1-1-8-8,1-1,2-1h1l1-1h1l1-1,2-1,4-4,1-1v-6l-1-1v-1l-1-1-1-2-2-2v-1h2l5-2,2-1h1l1-2,1-1,1-1-1-8-1-2v-1h2l2,1q2.5-.0645,5,0h2l3-2h1v-2l1-1V136l3,2,3,3,1,1h1l6,1h1l5-5v-1l1-1v-1l1-1,1,2,1,1v1l5,5h7v-1h1l1-1,1-1,2-1,1-2,1,3,1,6v1l1,2c0,1,5,3,7,2l4-1h3l-1,2v9c0,2,1,3,3,4l1,1h2l1,1h1l2,1c3,0,3,0,2,1l-2,2-1,1-1,3v1l-1,3,1,3v1l1,1,3,3h1l1,1,1,1h2v1h2l1,1h1v1a23,23,0,0,0-5,6l-2,2-1,1v1l-2,3v1l-1,2-1,2v1a76.0007,76.0007,0,0,0,1,30v1l1,1v1l2,5v1l1,1v2l1,1v1l1,1v1l1,1v1l1,1,2,3,1,1,1,2,2,2,1,2,2,1,1,1a23.0026,23.0026,0,0,0,5,5l2,1,1,1h1v1h1l1,1,2,1,2,1h1l1,1,2,1h1l2,1h3l1,1h3l7,2a92,92,0,0,0,27-3h2l2-1h1l1-1h1l4-2h1l4-2,3-2h1l1-1,2-1v-1h1l2-1,1-1,1-1,2-1,1-1a128.0007,128.0007,0,0,0,15-17l1-2h1v-1l1-1v-1l2-3v-1h1v-2l1-2,2-4v-1l1-2v-3l1-1v-3l1-4v-4l1-2v-6l1-4A109,109,0,0,0,368,134Zm-84.2559,59.248L283,193h-1l.0158.004c-.9961-.1513-1.99-.3207-2.9836-.4879l-.6679-.3339c1.542.2329,3.4105.5,5.6357.8178q2.324.3486,4.6227.6227l.2911.2911Q286.3248,193.6163,283.7441,193.248ZM291,194l.3834.1917c-.5685-.0578-1.1356-.1288-1.7036-.1917H291l-.478-.1594q.7677.0836,1.53.1594Zm31.5,0-1.1667.3333L322,194h-2v.7143L319,195a190.98,190.98,0,0,1-26-.6539v-.2539c11.8541,1.1037,22.6505.7725,29.6718-.764L322,194ZM276,189l2-1h4l.3169-.1584q1.616-.1884,3.23-.3887L285,188l1.2676-.6338Q294.1586,186.3576,302,185l3-1c-1,1,2,1,7,1a46.9774,46.9774,0,0,0,6.1627-.2257L322,185c6,1,9,2,9,5,0,1-1,2-5,3l-2.8.8.7844-.7844.0613-.0156H326c2.13-.8522,3.3451-1.8855,3.7374-2.8687l-.1593.08c.82-1.721-1.37-3.3428-6.5781-4.2109l-20-1h-1l-3,1-14,2-5,.7143V188l-2,1c-1.0329.2582-1.93.4827-2.6828.6828Zm-5,1.1323V191h1l-.9022-.9022c.0359-.01.0795-.017.1192-.0255l1.283.4277-.5-.5,2-1h1v.7682a8.3334,8.3334,0,0,0-2.2585.8123L272.5,190.5l.1585.1585c-.3628.43,1.01.7865,4.5266,1.3415H277l.2051.2051c-.4012-.0714-.8042-.131-1.2051-.2051h-3C270.6484,191.2161,270.1466,190.4346,271,190.1323ZM281,160.96c-1.3268.37-2.6586.7233-4,1.04-2.4579.6048-4.9445,1.078-7.447,1.447L270,163h-1l-1.4457.7228c-.85.1036-1.701.201-2.5543.2772q-.6969.1741-1.3048.3048L264,164c-.3918,0-.7118,0-.9716-.0071L267,163c1.6748-.2333,3.3408-.517,5-.8328V163l2-1h-1.0974c1.2628-.2521,2.5184-.5367,3.77-.8364L275,162h2v-.9167c.5458-.1326,1.0929-.26,1.6364-.4015L278,161h1l.5771-.5771c.475-.1286.95-.2579,1.4229-.3934ZM315,146l-1,1-1,1a90.9991,90.9991,0,0,1-23,10q-4.401,1.6829-8.9438,2.9438L282,160h-.8935q4.5091-1.2962,8.8935-3l3-1,6-2a96.6029,96.6029,0,0,0,11.3671-5.3671L310,149l8-5-1.9059.953c2.9588-2.2326,4.5213-4.18,4.3715-5.4874l.2942.2942C320.8443,141.83,318.7828,144.4869,315,146Zm5-8a2.56,2.56,0,0,1,.7437,1.6156l-.4453-.668a1.3766,1.3766,0,0,0-.11-.1648l-.7843-1.1766A2.3648,2.3648,0,0,1,320,138Zm-11,.5335c.6658-.1813,1.3361-.3452,2-.5335l2-1c.8029-.8029,4.18-.3159,6,.4246V138l.0854.0854A14.6481,14.6481,0,0,0,313,138a38.9762,38.9762,0,0,0-4,.8735ZM262,163l2-2,2-1,2-1v-.6752q7.5391-4.9434,15.42-9.3248H284l2-1-1.9572.6524Q291.3913,144.5834,299,141c2.7664-.6,5.5135-1.2815,8.2511-2H308.52a38.9788,38.9788,0,0,0-5.52,2c-14,5-27,12-37,20-.92.46-1.6732.8643-2.2757,1.2184.37-.3394.7939-.7366,1.2757-1.2184a25.3063,25.3063,0,0,0-3.0992,2.0992Zm-1,1,.2813-.2812c-.4731.6412.1391.808,1.7187.5026v.2252a7.68,7.68,0,0,1-2,.1918Zm18.6344-61.4516c.6458-.57,1.2877-1.1441,1.9431-1.7034l-.4593.9185Q279.948,102.77,278.8,103.8ZM269,113l1-1,.2029-.4059c.76-.7949,1.5368-1.5741,2.3141-2.3526L273,109l.2451-.49q2.3465-2.3191,4.7869-4.5418L276,106c-2.7015,2.7015-3.5687,3.57-2.0051,2.3143q-2.8335,2.7851-5.51,5.7168C268.6563,113.6874,268.8259,113.3426,269,113Zm-.9481.8961L268,114l-.6879.6879C267.5546,114.42,267.8076,114.1622,268.0519,113.8961ZM249,139l1-2,1-1v1l1-2,1-2,2-3v1l1-2v-.4825A24.98,24.98,0,0,1,258,126q4.2651-5.7117,9.0371-11h.5692a145.9905,145.9905,0,0,0-16.8737,23H250l-1,1c0,1.4118.499.8293,1.1438.0135-.3842.66-.77,1.32-1.1438,1.9865,1.6669-.9173,3.3077-1.8787,4.9326-2.8652L253,140l1-1,2-1h-1.8437q4.5378-2.7672,8.8437-5.8854V133l2-2-1.4675.7338Q267.8968,128.54,272,125q2.6794-2.4851,5.2851-5.0468L275,123c2.9593-3.0333,5.8062-6.1727,8.5771-9.3784Q285.3035,111.8252,287,110a35.463,35.463,0,0,0,4.1555-6.1555L292,103v-.9149c1.1992-2.7693,1.5381-5.0089,1-6.0851h-3c-.3926.1442-.78.3-1.1634.4653L285,98h.8858A23.0033,23.0033,0,0,0,282,101c0-.1687,0-.3375,0-.5062.9919-.84,1.9866-1.678,3-2.4938,0-1.0737,2.3057-2.1414,4.5962-2.5962L289,96h1v-.6737c1.833-.3051,3.5685-.1893,4,.6737,1.323,1.9845-.87,6.6023-5.39,12.3905L288,109l-.2158.4317A111.7892,111.7892,0,0,1,280,118a73.0063,73.0063,0,0,1-6,6,129.9984,129.9984,0,0,1-26,19Zm-15.8531-20.44q-.2482.3952-.4966.79L231,121l2-3,.5-.5ZM232,105.5806V106l1-1h-.8624A125.9906,125.9906,0,0,1,236,92c.726-1.6851,1.38-3.3989,2-5.1252V87l1-1V85l-.5334.5334c.1749-.5122.3679-1.018.5334-1.5334l1-2a65.8822,65.8822,0,0,1,5.369-9.738L245,73l1.87-2.8045c.1014-.129.2008-.2427.3016-.3668L249,68l.1708-.3416a10.4058,10.4058,0,0,1,1.7485-1.3473A15.1951,15.1951,0,0,0,249,68a6.9106,6.9106,0,0,1,3.4145-2.2286,1.1214,1.1214,0,0,0-.2545-.0048A2.2068,2.2068,0,0,1,254,66c.6487,1.2973.4521,5.5413-.3094,10H253v1l.6256-.6256A48.1777,48.1777,0,0,1,252,83a62.9853,62.9853,0,0,0-3,7c-.3256.67-.6713,1.3306-1.0018,1.9985C247,91.0018,246.9993,92.0013,246,94l-1,2,2.9922-3.99c-1.893,3.8243-3.85,7.6161-5.9024,11.355L241,105l.3988-.3988q-3.7721,6.7939-7.8926,13.3865L234,117l2-4-1.8448,2.7672Q235.4743,113.324,237,111l1-1.5v.5l1-2q1.761-3.5939,3.4127-7.2382L242,102l2-4-.6243.6243Q248.7564,86.5448,253,74l1-1a12.5145,12.5145,0,0,0-.0673-1.7981L254,71l-.9219-3.6875A4.47,4.47,0,0,1,254,69c0-3-2-4-5-1l-1.8355,2.7533q-.6746.7131-1.2826,1.4829L246,72l-1,1-1,2c-.67,1.2579-1.2758,2.5467-1.8492,3.8492L242,79v.2081c-.3474.804-.69,1.6095-1,2.4285V81l-1,2,.8044-.8044A56.9912,56.9912,0,0,0,239,88a185.9773,185.9773,0,0,0-7.3493,22.3493L231,111c0,.5739.001,1.1446.19,1.1516q-.3049,1.2206-.593,2.4453l-.3206-.3206Q230.9852,109.8974,232,105.5806ZM230,116v1l.08-.16q-.1963.8821-.383,1.7662l-.3639.7276Zm-1,5,.2-1h.2108c-.1363.6668-.2818,1.3315-.4108,2v2l3.3942-4.2427Q230.7213,122.3939,229,125h-1Zm-53.5281-1.5281c.0087.0557.0164.1114.025.1671q-.0419-.1125-.0833-.2254ZM152.6188,77.6188l.13.13q.1792.5944.3777,1.1981Q152.87,78.2838,152.6188,77.6188Zm3.13,7.8551c.0846.1748.1647.3531.2512.5261l.1061.3184C155.9873,86.0368,155.8667,85.756,155.7488,85.4739ZM155,68c-.33-.33-.5913-.5876-.826-.8134a7.4244,7.4244,0,0,1,2.6411,2.4839A9.9984,9.9984,0,0,0,155,68Zm6.74,30.74c-.3151-.6484-.6355-1.2941-.9451-1.9451l.0915.0915c.3761.7.7424,1.4049,1.1095,2.1095ZM167,109q-1.1474-2.1156-2.2527-4.2527L165,105l-1-2v.2782q-1.0174-1.9935-2-4.0041v-.27c1.0325,1.9821,2.04,3.9776,3,5.9963,1.171,1.8962,2.3854,3.7644,3.6194,5.6194Zm-1-21c-2.3769-7.923-6.0064-14.5774-8.9048-18H158c-1-2-5-4-6-4v1c-1.2718.6359-.9216,4.9141.5272,10h-.1449c-.1259-.3339-.2578-.6655-.3823-1q-.1952-.6834-.351-1.351L152,75l-.4815-.963C150.2267,67.9428,151.3814,63.2861,155,66l2,2,5,9q1.2106,2.114,2.2936,4.2936L164,81l1,2v-.2429A84.9931,84.9931,0,0,1,170,96v1l1,1,2,8c.4946,2.3262.9473,4.6608,1.3746,7H174l.46.46q.2813,1.5559.54,3.1157V117l.1069.2138c.0982.5954.2005,1.19.2944,1.7862h-.1406c-.47-1.3173-.9048-2.6468-1.2607-4Q169.9253,101.5222,166,88Zm9,34c-.2321-.4326-.4783-.8572-.7153-1.287L176,123l-.375-1.5A9.26,9.26,0,0,1,174,120l-1-2v.4186c-.2008-.3473-.4114-.6887-.6154-1.034L173,118l-1.2068-1.6092c-.2047-.3393-.4007-.6839-.6084-1.0214L170,113v.5066c-.3325-.52-.66-1.0431-1-1.5583v-.7605q2.889,4.3105,6,8.4665V120c.2311.4623.4016.8057.5135,1.0543l-.267-1.0683c.1272.1692.2508.3408.3786.51.1262.8347.2572,1.6686.3749,2.5045Zm-40.4332-10.7166q1.7138,1.7925,3.3861,3.6225L138,115l.3437.3437q3.2005,3.5431,6.2327,7.2327L144,122l.5,1-1.5-2-8-8.6667L134,111Zm-6.7458-6.736-.4558-.3039c-.2064-.2047-.4237-.3982-.6327-.6l-.2631-.3508C126.9193,103.7114,127.3752,104.1243,127.821,104.5474ZM154,140.5V140h-2a28.0046,28.0046,0,0,1-5-4,65.0018,65.0018,0,0,1-14-10,154.9957,154.9957,0,0,1-14.2458-14.4972L121,113l-1-1a13.5554,13.5554,0,0,0-2.7732-2.3292c-.7435-.8893-1.5032-1.7646-2.2268-2.6708l-1-2v-1l-2-4-1-1q0-6,6-3a34.9986,34.9986,0,0,1,7,5c.3157.284.6194.58.9332.8663L125,102l2,2,3,3,1,1,1,1-.709-1.0635c.7955.7931,1.5889,1.5877,2.37,2.3942L133,110l-1-1c.2344.2888.4788.5692.7143.8571L131,108c-5.1136-4.4744-8.59-7.7169-11.48-9.74L121,99l-1-1h-.86c-.1394-.0939-.2788-.1873-.4156-.2753L118,97l-1.7344-.5781A9.68,9.68,0,0,0,115,96h-3c-2.79,3.7195,9.9866,19.5425,26.2643,33H138l2,2-.4914-.9827Q140.7445,131.0187,142,132l2.8,1.8L147,136l2,1,2,1c-.3823-.3312-.7765-.6477-1.1693-.9659L156,141a86.9931,86.9931,0,0,0-5.0153-9.0153L151,132l-.0319-.0426Q150.014,130.46,149,129l-3-4,1,1-.5236-1.0471q3.4608,4.3648,6.6784,8.92L151,131l1,2,1.78,1.78c.7445,1.07,1.4964,2.1345,2.22,3.22l.5,2H156l.6667.6667L157,142ZM95,138H92l-4.2865-.7144A29,29,0,0,1,95,138Zm47.7116,26.7116L142,164h-1l.4252.4252c-.434-.1153-.8978-.2494-1.4252-.4252h-4a57.9926,57.9926,0,0,1-10-2.3259V161h1l-4-1,1,1h1l.5084.5084c-.503-.1691-1.01-.3254-1.5084-.5084h-2a68.0053,68.0053,0,0,0-7-3h-2l-1-1-5-2c-17.7412-6.1708-27.1364-15.3092-21.3335-17.333l-.3412.6824A1.4575,1.4575,0,0,0,85,140.2934V141l1,1-.2437-.4872c1.43,1.8374,4.3329,4.1464,8.1167,6.4872H93l1,1h1l-.801-.801c1.831,1.1188,3.8512,2.2409,6.008,3.3183-.099.0841.4319.5753,1.793,1.4827l3,1-2-1c-.304-.2027-.5814-.3793-.8423-.5409A83.9789,83.9789,0,0,0,114,157l1,1h1l-.5-.5,1.5.5q5.4459,1.7339,11,3.0762V162h1l-.9-.9q7.3769,1.7892,14.9,2.9h-1c2,1,2,0,1-1l-6.0667-4.2L136,158c-.3427-.175-.6749-.3693-1.0151-.5489L130,154l2.9142,2.3314c-1.3233-.7455-2.6319-1.5166-3.9142-2.3314l-1-1-5-3,.6085.6085q-1.5287-.8143-3.0679-1.6085H121l-1-1h-1.4371q-5.2015-2.62-10.5179-5H110l-3-1,.9651.9651q-3.41-1.52-6.867-2.9324L104,141l-2-1h-.9806q-1.9632-.8043-3.9408-1.5743A52.9843,52.9843,0,0,1,108,142a130.9895,130.9895,0,0,1,20,10l2,1,1,1,2,1,2,2h1l3,3C144.7011,163.2578,145.7567,165.1876,142.7116,164.7116ZM131,189c.3619.0724.69.1448,1,.2172v.5852c-.2452-.063-.5772-.13-1-.2029V189h-2l.8221.4111c-.7718-.1174-1.6969-.25-2.8221-.4111l-3-1-.1053-.0526C126.2637,188.2943,128.63,188.6575,131,189Zm-8.2174-1.2174.0235.0235c-.4667-.0809-.9348-.1522-1.4022-.2277C121.8635,187.646,122.3229,187.7151,122.7826,187.7826ZM79,186a14.93,14.93,0,0,0-2.4095,1.4641c.0971-.0417.2111-.0795.3161-.1193C75.35,188.3941,74.8589,189.8589,76,191a16.4023,16.4023,0,0,0,6,2.397v.403l-2-.6V193h-.6667L76,192c-2-1-2-3,0-5,2-1,3-2,8-2l2.7-.9,6.3.9a40.11,40.11,0,0,0,6.5955-.2591L104,185c4.5981.6978,9.201,1.3635,13.8018,2.0447A123.0074,123.0074,0,0,0,104,186h2l-3-1h-1l1,1H82a11.1948,11.1948,0,0,0-2.579.29L80,186Zm53,6q-4.6924.525-9.3679,1.1839L123,193h-2l-1.1788.5894c-2.9458.4353-5.8872.9-8.8212,1.4106H93a23,23,0,0,0-5,0H86l-3.3333-1H83l-.4858-.4858C87.504,194.5893,94.34,195,102,195a171.006,171.006,0,0,0,27-4c2.5-.5,3.75-.75,3.5-1h.5l-.7121-.7121a8.8672,8.8672,0,0,1,2.07.7121H134l-1,1,1.6329-.8165C135.3659,190.789,134.4219,191.3945,132,192Zm74.7575-87.7575-.6951.6951q.5922-4.4565.9391-8.9361l.5789.5789C207.366,99.14,207.0857,101.6941,206.7575,104.2425ZM207.6211,96h-.62c.0477-.623.0881-1.2465.1284-1.87l.5815.5815C207.68,95.1409,207.6556,95.5708,207.6211,96Zm-5.0658,26.2776.8627.4314C203.1752,122.9149,202.8763,122.8006,202.5553,122.2776ZM203.7841,122h-1.3793A7.5292,7.5292,0,0,1,202,121l-1-2q-1.0977-5.4751-1.8849-11H200l-1-1v.162q-.2994-2.1356-.5571-4.2761L199,104v-2l-.74-.74q-.601-5.4276-.9155-10.8816L198,93V87c-.4479-.4479-.6888-.4768-.8253-.2122-.1024-2.594-.1709-5.19-.1747-7.7878l.5625-10.125L198,68V66l-.3125.625L198,61c.5381-3.2288,1.6566-5.2852,2.8856-5.8856L200,56l-1,2,1.944-2.916c1.0381-.4663,2.1494.1028,3.056,1.916.178.178.3478.3562.512.5358L205,59l1,1-.8556-1.7112c1.4569,1.8717,2.2615,4.1488,2.62,8.4757L207,66l.8906,2.6718C207.9653,70.2091,208,71.9662,208,74a172.964,172.964,0,0,1-.1812,19.1812l-.67.67a160.9856,160.9856,0,0,0-1.0059-30.7077L207,64V63l-1-1c-1-4-3-7-5-5l-1,2-1,2a192.9931,192.9931,0,0,0,1.697,51H200l1,2v-.2795c.3115,1.7631.6392,3.524,1,5.2795,0,1.6885,1.4216,3.3672,1.8656,2.6486Q203.8291,121.8389,203.7841,122Zm1.908-10.6921q-.5293,3.0948-1.1709,6.1709L204,118c0,.5593,0,1.1177.1753,1.1521-.0618.282-.1121.5661-.1753.8479,0,.3645-.0153.6981-.043,1H203c.25-.25.5-1.5,1-4q1.2174-5.7655,2-11.5952V108l.5343-2.1373c-.2029,1.4659-.42,2.9294-.6607,4.39L205,112ZM126,118l1,1-1.3333-.6667c.11.2229.2261.4425.3333.6667l-.6667-.8333L125,118l-1-1,.6667.3333L122,114l3,3c.1151.22.2209.4451.3333.6667Zm4,4,1,1-1.3333-.6667L130,123l-1-1-1-1-1-2,2,2,.3333.6667Zm-12-13,1,2-1-1-2-2Zm38,32-2-1-3-2Zm171,46-1-1a4.0787,4.0787,0,0,1,3,1.5537V187l1,1v1l-.2905-.2905c.0105.0256.0259.05.0358.0753-.0173-.04-.0545-.0753-.075-.1145L329,188v-.0909A5.31,5.31,0,0,0,327,187ZM153,135l-1-2,3,5Zm46.4-75.6L199,61V60ZM127,192l2-1h3Zm203-2-.2626.1313a1.715,1.715,0,0,0,.0417-1.2506A3.3548,3.3548,0,0,1,330,190ZM166,87l1,2v1ZM87,144l-1-2,1,1Zm83-46,1,2-1-1Zm2,8,1,1v1l-1-1Zm29-50v1l-1.6,2.4L200,57ZM169,95l1,2-1-1Zm6.625,26.5-.1115-.4457C175.6437,121.3434,175.6922,121.5,175.625,121.5ZM306,151l2-1-3,2ZM75.2954,190.4647A2.1426,2.1426,0,0,0,76,191l1,1A6.5316,6.5316,0,0,1,75.2954,190.4647ZM290,146l-2,1,1-1Zm10-5h1l-1,1C299,142,298,142,300,141ZM290,96c1-1,1,0,0,0ZM89,145l4,3-2-1Q89.9518,146.0494,89,145Zm43,17,1,1h-1l-1-1ZM76.5905,187.4641c-1.2673.9749-1.7778,1.8875-1.5287,2.6107C74.5613,189.0585,75.0192,188.1373,76.5905,187.4641ZM302,153l3-1-5,2Zm-11,4,2-1h1ZM84,194l2,1-3-1Zm48-70,2,2-2-1-1-2Zm16,3,1,2-2-3Zm111-2c1-2,2-2,0,0Zm-117,8-2-2,2,1C144,134,144,134,142,133Zm117,2,2-1-2,2ZM120,159l1,1h-1ZM236,95l-1,1,1-2ZM99,151l3,2-2-1Zm197-8h-1l2-1C300,141,299,141,296,143ZM252.4145,65.7714C253.4169,65.6484,254,66.3857,254,68,253.5381,66.6143,253.0735,65.877,252.4145,65.7714ZM171,101v-1l1,4Zm71-23v1l-1,2Zm-90,61v1l-3-3Zm50-19-1-1v-1l1,1Z" transform="translate(-16.384 -11.6077)"/></svg>