<?xml version="1.0" encoding="utf-8"?>
<!-- Generator: Adobe Illustrator 23.0.3, SVG Export Plug-In . SVG Version: 6.00 Build 0)  -->
<svg version="1.0" id="Layer_1" xmlns="http://www.w3.org/2000/svg" xmlns:xlink="http://www.w3.org/1999/xlink" x="0px" y="0px"
	 viewBox="0 0 560 288" style="enable-background:new 0 0 560 288;" xml:space="preserve">
<style type="text/css">
	.st0{fill:none;}
	.st1{fill:#FFFFFF;}
</style>
<g>
	<g>
		<rect x="169.3" y="64.6" class="st0" width="247.9" height="96.5"/>
		<path class="st1" d="M173.7,70.6h-2.6v-6.1h2.6V70.6z M173.7,114.9h-2.6V78h2.6V114.9z"/>
		<path class="st1" d="M179.9,77.9H196v2.7h-16.1v15.1c0,2.1,0.6,4.5,1.6,7.1c0.6,1.6,2.3,3.7,5,6.2c3.4,2.1,6.8,3.2,10.1,3.2h0.4
			v2.7h-0.1c-5.8,0-10.7-2.1-14.8-6.2c-3.3-3.8-4.9-8.6-4.9-14.2v-30h2.7V77.9z"/>
		<path class="st1" d="M203.2,70.6h-2.6v-6.1h2.6V70.6z M203.2,114.9h-2.6V78h2.6V114.9z"/>
		<path class="st1" d="M209.4,98.7h0.1c6.8,0,12.5-2.7,17.2-8.1c2.6-3.2,4.3-6.6,4.9-10.2L232,78h2.6c-0.4,3.6-1.1,6.5-2.2,8.8
			c-0.9,2.1-2.9,4.9-6,8.2c-0.2,0-0.5,0.3-1.2,0.9c-0.7,0.6-1.2,0.9-1.4,0.9V97c2.8,0.2,5.8,1.3,8.9,3.2c4.8,3.8,7.3,8.7,7.3,14.4
			v0.2h-2.8v-1.3c0-1.6-0.7-3.8-2.2-6.8c-3.2-4.8-7.8-7.1-13.7-7.1c-1,0-3.4,0.4-7.1,1.3l-4.6,0.6h-0.1v13.5h-2.7V64.6h2.7V98.7z"/>
		<path class="st1" d="M255.1,78h22.6v2.7h-23.2c-4,0-6.6,1.6-7.7,4.9c-0.3,1-0.5,1.9-0.5,2.7c0,2.1,0.9,4,2.7,5.6
			c1.4,1,2.7,1.6,3.8,1.6h16.3c2.1,0.2,3.8,1,5.4,2.3c1.6,1.5,2.6,3.1,2.9,4.7l0.2,1.5v2.5c-0.2,1.9-1.1,3.8-2.7,5.6
			c-1.3,1.2-2.9,2.1-4.9,2.6l-2.6,0.1h-23.9v-2.6h23.3c4.3,0,7-1.8,8-5.3l0.2-1.9c0-3-1.5-5.2-4.5-6.6l-2.1-0.5h-14.9
			c-2.1,0.1-4.1-0.5-6-1.8c-2.7-2.2-4-5-4-8.2c0-3,1.2-5.7,3.6-8.1C249.1,78.7,251.7,78,255.1,78z"/>
		<path class="st1" d="M283.9,86.4h0.1c1.7-3,4.4-5.3,8.1-6.8c2.2-1,4.9-1.5,8.1-1.5h0.5c3.3,0,6.9,1.3,10.8,3.8
			c2.8,2.3,4.6,4.7,5.4,7.1c0.9,1.6,1.4,4.4,1.4,8.3v17.7h-2.7V96.8c0-7.3-3.4-12.3-10.1-15c-1.4-0.5-3.3-0.8-5.7-0.9
			c-4,0-7.7,1.4-11.1,4.1l-1.2,1.3c-2.3,2.8-3.5,6.7-3.5,11.8v16.9h-2.7V64.4h2.7V86.4z"/>
		<path class="st1" d="M339.7,78.1c7.4,0,12.9,2.8,16.5,8.3V78h2.6v36.9h-2.6v-8.2c-2.2,3.5-5.6,6-10.2,7.5
			c-1.7,0.5-3.1,0.7-4.1,0.7h-1.1c-4.6,0-8.4-1.1-11.5-3.3c-3.1-2.1-5.3-5.1-6.6-8.9c-0.7-2.4-1.1-4.5-1.1-6.3
			c0-2.8,0.8-5.9,2.3-9.3c2.5-4.2,6.1-6.9,10.8-8.3C337.3,78.4,338.9,78.1,339.7,78.1z M324.7,96.1v0.2l-0.1,0.1l0.1,0.1V97
			c0,5.8,2.6,10.3,7.9,13.2c2.6,1.3,5.1,1.9,7.4,1.9h0.7c4.7,0,8.8-1.9,12.2-5.6c2.2-3.1,3.3-6.5,3.3-10.1c0-4.9-1.9-9-5.7-12.2
			c-3.1-2.2-6.4-3.3-9.7-3.3H340c-3.8,0-7.4,1.4-10.9,4.3C326.2,88.4,324.7,92,324.7,96.1z"/>
	</g>
	<g>
		<path class="st1" d="M182.5,52.5c0,3.1-2.4,5.5-5.4,5.5h-15.5v52c0,3.1-2.4,5.5-5.4,5.5c-3.1,0-5.5-2.4-5.5-5.5V58h-15.4
			c-3,0-5.4-2.4-5.4-5.5c0-3,2.4-5.4,5.4-5.4h41.8C180.1,47.1,182.5,49.5,182.5,52.5z"/>
	</g>
	<g>
		<path class="st1" d="M347.6,74.4c-3,0-5.4-2.4-5.4-5.4V56.9c0-3,2.4-5.4,5.4-5.4c3,0,5.4,2.4,5.4,5.4V69
			C353,72,350.5,74.4,347.6,74.4z"/>
		<path class="st1" d="M377.7,52.4v57.3c0,3.1-2.5,5.6-5.6,5.6s-5.6-2.5-5.6-5.6V63.2c-2,0.8-4.1,1.3-6.1,1.3
			c-3.1,0-5.6-2.5-5.6-5.6s2.5-5.6,5.6-5.6c2,0,5.3-1.6,7.3-4.2c0,0,0-0.1,0.1-0.1c0-0.1,0.1-0.2,0.2-0.2c0-0.1,0.1-0.2,0.2-0.3
			l0.2-0.2c0.1,0,0.1-0.1,0.2-0.2c0.1,0,0.1-0.1,0.2-0.1c0.1-0.1,0.2-0.2,0.3-0.2l0.2-0.2c0.1,0,0.2-0.1,0.3-0.2
			c0.1,0,0.2,0,0.3-0.1c0,0,0.1-0.1,0.2-0.1c0.1-0.1,0.2-0.1,0.3-0.1c0.1-0.1,0.2-0.1,0.3-0.1c0.1-0.1,0.2-0.1,0.3-0.1
			s0.2-0.1,0.3-0.1h0.3c0.1-0.1,0.2-0.1,0.3-0.1h0.2c0.2,0,0.3,0,0.4,0h0.1h0.1h0.4c0.1,0,0.2,0,0.3,0c0.1,0,0.2,0,0.3,0.1h0.3
			c0.1,0,0.2,0.1,0.3,0.1s0.2,0.1,0.3,0.1c0.1,0,0.2,0.1,0.2,0.1c0.1,0,0.2,0.1,0.3,0.1c0.1,0,0.2,0.1,0.3,0.1l0.3,0.2
			c0.1,0,0.1,0.1,0.2,0.1c0.1,0.1,0.2,0.2,0.3,0.2c0,0.1,0.1,0.1,0.1,0.1c0.1,0,0.1,0.1,0.1,0.1l0.3,0.2c0,0.1,0.1,0.1,0.2,0.2
			l0.2,0.2c0.1,0.1,0.1,0.2,0.2,0.3c0.1,0,0.1,0.1,0.2,0.1c0,0.1,0.1,0.2,0.2,0.3c0,0.1,0.1,0.2,0.1,0.2l0.2,0.3
			c0,0.1,0.1,0.2,0.1,0.3c0.1,0.1,0.1,0.2,0.1,0.3l0.2,0.3c0,0,0,0.1,0.1,0.2V51c0.1,0.1,0.1,0.2,0.1,0.3c0,0.1,0.1,0.2,0.1,0.3v0.3
			c0,0.1,0,0.2,0,0.3C377.6,52.2,377.7,52.2,377.7,52.4L377.7,52.4z"/>
		<path class="st1" d="M426.6,82.3c-1.2,2.8-2.3,5.5-3.6,8.2l-9.5,21.5c-0.9,2.1-2.9,3.2-5,3.2c-0.7,0-1.4-0.2-2.2-0.5
			c-2.8-1.3-4.1-4.5-2.8-7.2l7.6-17.3c-0.8,0.1-1.7,0.1-2.6,0.1c-12,0-21.8-9.7-21.8-21.7s9.8-21.8,21.8-21.8
			c12,0,21.8,9.8,21.8,21.8C430.3,73.6,428.6,77.8,426.6,82.3z M408.5,79.4c5.9,0,10.8-4.8,10.8-10.7c0-5.9-4.9-10.8-10.8-10.8
			c-5.9,0-10.8,4.9-10.8,10.8C397.7,74.6,402.5,79.4,408.5,79.4z"/>
	</g>
	<g>
		<path class="st1" d="M267.6,63.4c0,0.4-0.2,0.8-0.5,0.9c-0.3,0.2-0.6,0.2-0.9,0.2h-5c-0.2,0-0.5,0-0.7-0.1
			c-0.4-0.2-0.6-0.8-0.5-1.3c0.1-0.3,0.2-0.5,0.4-0.7c1.3-1.9,2.7-3.9,4.1-5.8c0.4-0.5,0.7-1,0.8-1.7c0.1-0.8-0.4-1.6-1-2
			c-0.8-0.5-1.8-0.4-2.4,0.4c-0.2,0.2-0.4,0.5-0.6,0.7c-0.3,0.2-0.8,0.1-1-0.2c-1.1-1.4,1.3-3,2.1-3.2c0.9-0.3,2-0.1,2.8,0.4
			c0.7,0.5,1.4,1.2,1.7,2.1c0.3,0.9,0.5,1.9,0.2,2.8s-0.7,1.7-1.2,2.4c-0.9,1.3-2.7,3.9-3,4.1h3.4c0.1,0,0.3,0,0.4,0
			c0.2,0,0.3,0.1,0.5,0.2C267.4,62.6,267.6,63,267.6,63.4z"/>
		<path class="st1" d="M273.5,64.6c-1.9,0-3.6-1.7-3.9-3.9c0-0.1,0-0.1,0-0.2c0-1.7,0-3.3,0-5c0-1.4,0.3-2.7,1-3.8
			c0.7-1,1.8-1.5,2.8-1.5c2,0,3.6,1.9,3.8,4.3c0,0.1,0,0.2,0,0.4l0,5.7c0,0.1,0,0.1,0,0.2C276.9,62.9,275.3,64.6,273.5,64.6z
			 M275.3,54.8c0-1.3-0.8-2.3-1.9-2.3c-1,0-1.9,1-1.9,2.3c0,0.5-0.1,4.7-0.1,5.5c0.2,1,1,1.8,2,1.8c0.9,0,1.7-0.8,1.9-1.8
			L275.3,54.8z"/>
		<path class="st1" d="M285.3,61.1h-5.4c-0.6,0-1-0.5-1-1.2c0-0.7,0.5-1.2,1-1.2h5.4c0.6,0,1,0.5,1,1.2
			C286.3,60.6,285.9,61.1,285.3,61.1z"/>
		<path class="st1" d="M295.2,63.4c0,0.4-0.2,0.8-0.5,0.9c-0.3,0.2-0.6,0.2-0.9,0.2h-5c-0.2,0-0.5,0-0.7-0.1
			c-0.4-0.2-0.6-0.8-0.5-1.3c0.1-0.3,0.2-0.5,0.4-0.7c1.3-1.9,2.7-3.9,4.1-5.8c0.4-0.5,0.7-1,0.8-1.7c0.1-0.8-0.4-1.6-1-2
			c-0.8-0.5-1.8-0.4-2.4,0.4c-0.2,0.2-0.4,0.5-0.6,0.7c-0.3,0.2-0.8,0.1-1-0.2c-1.1-1.4,1.3-3,2.1-3.2c0.9-0.3,2-0.1,2.8,0.4
			c0.7,0.5,1.4,1.2,1.7,2.1c0.3,0.9,0.5,1.9,0.2,2.8c-0.2,0.9-0.7,1.7-1.2,2.4c-0.9,1.3-2.8,3.9-3,4.1h3.4c0.1,0,0.3,0,0.4,0
			c0.2,0,0.3,0.1,0.5,0.2C295,62.6,295.2,63,295.2,63.4z"/>
		<path class="st1" d="M304.1,60.1c0,1.1-0.3,2.2-1,3c-0.5,0.6-1.4,1.4-2.8,1.4c-1.3,0-2.5-0.7-3.3-1.9c-0.3-0.5-0.2-1.2,0.2-1.6
			c0.4-0.4,1-0.3,1.4,0.2c0.4,0.6,1,1,1.7,1c1.3,0,1.8-1.1,1.8-2c0-0.5-0.1-0.9-0.4-1.3c-0.3-0.4-0.8-0.6-1.4-0.6
			c-0.5,0-0.9-0.5-0.9-1.1V57c0-0.6,0.4-1.2,0.9-1.2c1,0,1.3-1.1,1.3-1.8c0-0.5-0.1-0.9-0.3-1.2c-0.2-0.3-0.6-0.5-1-0.5
			c-0.6,0-1.1,0.4-1.3,0.9c-0.2,0.6-0.8,0.8-1.3,0.6s-0.7-1-0.5-1.6c0.5-1.4,1.7-2.3,3-2.3c1.3,0,2,0.7,2.4,1.2
			c0.5,0.7,0.8,1.7,0.8,2.7c0,1-0.3,2-0.8,2.7c0.1,0.1,0.3,0.2,0.4,0.4C303.7,58,304.1,59,304.1,60.1z"/>
		<path class="st1" d="M319.7,63.4C319.7,63.4,319.7,63.4,319.7,63.4L319.7,63.4c0,0.1,0,0.1,0,0.1v0.1c0,0,0,0,0,0.1s0,0,0,0.1v0.1
			c0,0,0,0,0,0l0,0.1c0,0,0,0,0,0.1c0,0,0,0,0,0.1l0,0.1c0,0,0,0,0,0c0,0,0,0,0,0c0,0,0,0,0,0c0,0,0,0,0,0.1c0,0,0,0,0,0
			c0,0,0,0,0,0c0,0,0,0,0,0h0c0,0,0,0,0,0c0,0-0.1,0.1-0.1,0.1c0,0-0.1,0.1-0.1,0.1h0c0,0-0.1,0-0.1,0h0c0,0-0.1,0-0.1,0
			c0,0-0.1,0-0.1,0l0,0c0,0-0.1,0-0.1,0c0,0,0,0,0,0c0,0,0,0-0.1,0c0,0,0,0,0,0s0,0,0,0c0,0,0,0,0,0c0,0,0,0,0,0c0,0,0,0,0,0
			c0,0,0,0-0.1,0c0,0,0,0,0,0c0,0,0,0-0.1-0.1c0,0,0,0,0,0c0,0,0-0.1-0.1-0.1v0l-5.9-9.4v8.7c0,0.6-0.4,1.2-0.9,1.2
			c-0.5,0-0.9-0.5-0.9-1.2V51.4v0c0,0,0,0,0-0.1c0,0,0,0,0,0v-0.1c0,0,0,0,0-0.1v-0.1c0,0,0,0,0-0.1s0,0,0,0c0,0,0,0,0-0.1l0-0.1
			c0,0,0,0,0-0.1c0,0,0,0,0-0.1c0,0,0,0,0,0l0,0c0,0,0,0,0,0l0-0.1c0,0,0,0,0,0l0,0c0,0,0,0,0,0h0c0,0,0,0,0,0c0,0,0,0,0,0
			c0,0,0,0,0,0c0,0,0,0,0,0c0,0,0,0,0,0l0,0c0,0,0,0,0,0c0,0,0,0,0,0h0c0,0,0,0,0,0h0c0,0,0,0,0,0h0c0,0,0,0,0,0h0c0,0,0,0,0,0h0
			c0,0,0,0,0,0h0c0,0,0,0,0,0l0.1,0c0,0,0,0,0,0s0,0,0,0c0,0,0,0,0,0l0,0c0,0,0,0,0,0c0,0,0,0,0,0c0,0,0,0,0,0c0,0,0,0,0,0l0,0
			c0,0,0,0,0,0l0,0c0,0,0,0,0,0.1c0,0,0,0,0,0l5.9,9.4v-8.7c0-0.6,0.4-1.2,0.9-1.2c0.5,0,0.9,0.5,0.9,1.2V63.4z"/>
		<path class="st1" d="M324.8,64.5c-2.1,0-3.9-2.1-3.9-4.7c0-2.6,1.8-4.7,3.9-4.7s3.9,2.1,3.9,4.8C328.7,62.4,326.9,64.5,324.8,64.5
			z M324.8,57.3c-1.1,0-2,1.1-2,2.4c0,1.3,0.9,2.4,2,2.4c1.1,0,2-1.1,2-2.4C326.8,58.4,325.9,57.3,324.8,57.3z"/>
		<path class="st1" d="M333.3,64.5L333.3,64.5c-0.4,0-0.7-0.2-0.8-0.6l-2.9-7.1c-0.2-0.6,0-1.2,0.4-1.5c0.5-0.3,1-0.1,1.2,0.5
			l2.1,5.1l2.1-5c0.2-0.5,0.8-0.8,1.2-0.5c0.5,0.3,0.6,0.9,0.4,1.5l-2.9,7C334,64.3,333.7,64.5,333.3,64.5z"/>
	</g>
</g>
<g>
</g>
<g>
</g>
<g>
</g>
<g>
</g>
<g>
</g>
</svg>
